<svg width="540" height="240" viewBox="0 0 540 240" fill="none" xmlns="http://www.w3.org/2000/svg">
<path d="M226.965 183.258C226.965 183.58 227.217 183.818 227.511 183.818C227.834 183.818 228.072 183.58 228.072 183.258V181.129L230.191 179.016L233.852 183.566C233.95 183.72 234.09 183.818 234.301 183.818C234.623 183.818 234.864 183.552 234.864 183.258C234.864 183.09 234.805 182.978 234.707 182.852L230.976 178.258L234.455 174.814C234.581 174.688 234.637 174.562 234.637 174.422C234.637 174.142 234.399 173.876 234.104 173.876C233.922 173.876 233.796 173.96 233.67 174.072L228.072 179.8V174.436C228.072 174.114 227.834 173.876 227.511 173.876C227.217 173.876 226.965 174.114 226.965 174.436V183.258ZM243.54 183.748C243.82 183.748 244.044 183.524 244.044 183.244C244.044 182.964 243.82 182.74 243.54 182.74H237.928V179.31H242.839C243.119 179.31 243.343 179.086 243.343 178.806C243.343 178.541 243.119 178.3 242.839 178.3H237.928V174.953H243.47C243.75 174.953 243.974 174.73 243.974 174.45C243.974 174.17 243.75 173.946 243.47 173.946H237.367C237.073 173.946 236.821 174.184 236.821 174.506V183.188C236.821 183.51 237.073 183.748 237.367 183.748H243.54ZM249.491 183.888C251.439 183.888 252.843 182.796 252.843 181.115V181.087C252.843 179.59 251.831 178.806 249.645 178.314C247.47 177.866 246.979 177.335 246.979 176.411V176.383C246.979 175.488 247.778 174.8 249.067 174.8C249.981 174.8 250.766 175.051 251.607 175.656C251.705 175.726 251.803 175.754 251.929 175.754C252.224 175.754 252.462 175.516 252.462 175.219C252.462 175.009 252.336 174.869 252.224 174.772C251.327 174.114 250.388 173.806 249.095 173.806C247.231 173.806 245.869 174.953 245.869 176.481V176.509C245.869 178.118 246.909 178.848 249.165 179.338C251.229 179.786 251.719 180.289 251.719 181.199V181.227C251.719 182.195 250.864 182.894 249.533 182.894C248.282 182.894 247.371 182.517 246.432 181.733C246.348 181.646 246.236 181.604 246.093 181.604C245.799 181.604 245.561 181.831 245.561 182.153C245.561 182.335 245.631 182.475 245.771 182.572C246.881 183.454 248.044 183.888 249.491 183.888ZM261.872 183.748C262.155 183.748 262.379 183.524 262.379 183.244C262.379 182.964 262.155 182.74 261.872 182.74H256.263V179.31H261.171C261.451 179.31 261.676 179.086 261.676 178.806C261.676 178.541 261.451 178.3 261.171 178.3H256.263V174.953H261.802C262.085 174.953 262.309 174.73 262.309 174.45C262.309 174.17 262.085 173.946 261.802 173.946H255.7C255.405 173.946 255.153 174.184 255.153 174.506V183.188C255.153 183.51 255.405 183.748 255.7 183.748H261.872ZM264.364 183.258C264.364 183.58 264.616 183.818 264.911 183.818C265.233 183.818 265.474 183.58 265.474 183.258V179.338H271.139V183.258C271.139 183.58 271.377 183.818 271.702 183.818C271.997 183.818 272.249 183.58 272.249 183.258V174.436C272.249 174.114 271.997 173.876 271.702 173.876C271.377 173.876 271.139 174.114 271.139 174.436V178.3H265.474V174.436C265.474 174.114 265.233 173.876 264.911 173.876C264.616 173.876 264.364 174.114 264.364 174.436V183.258ZM274.2 183.314C274.2 183.594 274.424 183.818 274.705 183.818C274.957 183.818 275.139 183.692 275.237 183.44L276.26 181.157H281.648L282.671 183.412C282.769 183.636 282.954 183.818 283.22 183.818C283.515 183.818 283.753 183.58 283.753 183.286C283.753 183.216 283.725 183.118 283.683 183.006L279.7 174.324C279.571 174.002 279.333 173.834 279.01 173.834H278.954C278.604 173.834 278.407 174.002 278.253 174.324L274.27 183.02C274.228 183.118 274.2 183.216 274.2 183.314ZM276.698 180.149L278.954 175.135L281.213 180.149H276.698ZM286.985 183.258C286.985 183.58 287.223 183.818 287.546 183.818C287.868 183.818 288.106 183.58 288.106 183.258V174.967H290.954C291.235 174.967 291.473 174.744 291.473 174.464C291.473 174.184 291.235 173.946 290.954 173.946H284.137C283.857 173.946 283.618 174.184 283.618 174.464C283.618 174.744 283.857 174.967 284.137 174.967H286.985V183.258ZM291.324 183.314C291.324 183.594 291.548 183.818 291.829 183.818C292.081 183.818 292.263 183.692 292.361 183.44L293.387 181.157H298.772L299.798 183.412C299.896 183.636 300.078 183.818 300.345 183.818C300.639 183.818 300.877 183.58 300.877 183.286C300.877 183.216 300.849 183.118 300.807 183.006L296.824 174.324C296.698 174.002 296.46 173.834 296.137 173.834H296.081C295.731 173.834 295.532 174.002 295.378 174.324L291.394 183.02C291.352 183.118 291.324 183.216 291.324 183.314ZM293.822 180.149L296.081 175.135L298.338 180.149H293.822ZM302.842 183.272C302.842 183.566 303.08 183.818 303.375 183.818C303.7 183.818 303.924 183.566 303.924 183.272V175.684L310.01 183.454C310.181 183.664 310.349 183.79 310.587 183.79H310.643C310.938 183.79 311.148 183.566 311.148 183.272V174.422C311.148 174.128 310.91 173.876 310.615 173.876C310.293 173.876 310.069 174.128 310.069 174.422V181.817L304.106 174.226C303.952 174.016 303.812 173.904 303.543 173.904H303.389C303.094 173.904 302.842 174.156 302.842 174.45V183.272ZM321.5 183.888C323.451 183.888 324.852 182.796 324.852 181.115V181.087C324.852 179.59 323.843 178.806 321.654 178.314C319.479 177.866 318.988 177.335 318.988 176.411V176.383C318.988 175.488 319.79 174.8 321.079 174.8C321.99 174.8 322.775 175.051 323.619 175.656C323.717 175.726 323.815 175.754 323.941 175.754C324.236 175.754 324.474 175.516 324.474 175.219C324.474 175.009 324.348 174.869 324.236 174.772C323.339 174.114 322.397 173.806 321.107 173.806C319.24 173.806 317.881 174.953 317.881 176.481V176.509C317.881 178.118 318.918 178.848 321.177 179.338C323.24 179.786 323.731 180.289 323.731 181.199V181.227C323.731 182.195 322.873 182.894 321.542 182.894C320.294 182.894 319.381 182.517 318.441 181.733C318.357 181.646 318.245 181.604 318.105 181.604C317.811 181.604 317.573 181.831 317.573 182.153C317.573 182.335 317.643 182.475 317.783 182.572C318.89 183.454 320.056 183.888 321.5 183.888ZM333.884 183.748C334.164 183.748 334.388 183.524 334.388 183.244C334.388 182.964 334.164 182.74 333.884 182.74H328.272V179.31H333.183C333.463 179.31 333.688 179.086 333.688 178.806C333.688 178.541 333.463 178.3 333.183 178.3H328.272V174.953H333.814C334.094 174.953 334.318 174.73 334.318 174.45C334.318 174.17 334.094 173.946 333.814 173.946H327.711C327.417 173.946 327.165 174.184 327.165 174.506V183.188C327.165 183.51 327.417 183.748 327.711 183.748H333.884ZM340.723 183.916C342.335 183.916 343.4 183.37 344.37 182.475C344.468 182.377 344.552 182.251 344.552 182.083C344.552 181.803 344.3 181.548 344.02 181.548C343.894 181.548 343.768 181.604 343.669 181.705C342.826 182.489 341.985 182.894 340.751 182.894C338.576 182.894 336.948 181.115 336.948 178.848V178.82C336.948 176.565 338.576 174.8 340.751 174.8C341.971 174.8 342.798 175.247 343.569 175.922C343.669 175.978 343.782 176.047 343.936 176.047C344.23 176.047 344.496 175.796 344.496 175.502C344.496 175.289 344.384 175.149 344.272 175.051C343.358 174.282 342.349 173.778 340.765 173.778C337.889 173.778 335.798 176.075 335.798 178.848V178.876C335.798 181.691 337.889 183.916 340.723 183.916ZM345.971 183.314C345.971 183.594 346.195 183.818 346.475 183.818C346.728 183.818 346.91 183.692 347.011 183.44L348.034 181.157H353.421L354.445 183.412C354.543 183.636 354.725 183.818 354.991 183.818C355.286 183.818 355.524 183.58 355.524 183.286C355.524 183.216 355.496 183.118 355.454 183.006L351.47 174.324C351.344 174.002 351.106 173.834 350.784 173.834H350.728C350.377 173.834 350.181 174.002 350.024 174.324L346.041 183.02C345.999 183.118 345.971 183.216 345.971 183.314ZM348.468 180.149L350.728 175.135L352.984 180.149H348.468ZM357.489 183.258C357.489 183.58 357.741 183.818 358.035 183.818C358.361 183.818 358.599 183.58 358.599 183.258V179.94H361.419L364.18 183.524C364.306 183.692 364.474 183.818 364.701 183.818C364.981 183.818 365.262 183.566 365.262 183.272C365.262 183.146 365.206 183.006 365.08 182.866L362.638 179.73C364.166 179.436 365.262 178.496 365.262 176.887V176.859C365.262 176.075 364.996 175.418 364.502 174.925C363.885 174.31 362.932 173.946 361.713 173.946H358.035C357.741 173.946 357.489 174.184 357.489 174.506V183.258ZM358.599 178.946V174.967H361.629C363.213 174.967 364.138 175.684 364.138 176.901V176.929C364.138 178.188 363.073 178.946 361.615 178.946H358.599ZM367.011 183.314C367.011 183.594 367.235 183.818 367.515 183.818C367.771 183.818 367.953 183.692 368.051 183.44L369.074 181.157H374.462L375.485 183.412C375.583 183.636 375.765 183.818 376.031 183.818C376.326 183.818 376.564 183.58 376.564 183.286C376.564 183.216 376.536 183.118 376.494 183.006L372.511 174.324C372.384 174.002 372.146 173.834 371.824 173.834H371.768C371.417 173.834 371.221 174.002 371.067 174.324L367.081 183.02C367.039 183.118 367.011 183.216 367.011 183.314ZM369.509 180.149L371.768 175.135L374.024 180.149H369.509ZM389.61 183.748C389.89 183.748 390.114 183.524 390.114 183.244C390.114 182.964 389.89 182.74 389.61 182.74H384.001V179.31H388.909C389.189 179.31 389.413 179.086 389.413 178.806C389.413 178.541 389.189 178.3 388.909 178.3H384.001V174.953H389.54C389.82 174.953 390.044 174.73 390.044 174.45C390.044 174.17 389.82 173.946 389.54 173.946H383.437C383.143 173.946 382.891 174.184 382.891 174.506V183.188C382.891 183.51 383.143 183.748 383.437 183.748H389.61ZM392.102 183.188C392.102 183.51 392.354 183.748 392.648 183.748H398.302C398.582 183.748 398.807 183.524 398.807 183.244C398.807 182.964 398.582 182.726 398.302 182.726H393.209V174.436C393.209 174.114 392.97 173.876 392.648 173.876C392.354 173.876 392.102 174.114 392.102 174.436V183.188ZM407.415 183.748C407.695 183.748 407.919 183.524 407.919 183.244C407.919 182.964 407.695 182.74 407.415 182.74H401.806V179.31H406.714C406.994 179.31 407.219 179.086 407.219 178.806C407.219 178.541 406.994 178.3 406.714 178.3H401.806V174.953H407.345C407.625 174.953 407.849 174.73 407.849 174.45C407.849 174.17 407.625 173.946 407.345 173.946H401.242C400.948 173.946 400.696 174.184 400.696 174.506V183.188C400.696 183.51 400.948 183.748 401.242 183.748H407.415ZM409.907 183.258C409.907 183.58 410.159 183.818 410.454 183.818C410.776 183.818 411.014 183.58 411.014 183.258V181.129L413.133 179.016L416.794 183.566C416.892 183.72 417.032 183.818 417.243 183.818C417.568 183.818 417.806 183.552 417.806 183.258C417.806 183.09 417.75 182.978 417.652 182.852L413.918 178.258L417.397 174.814C417.526 174.688 417.582 174.562 417.582 174.422C417.582 174.142 417.341 173.876 417.046 173.876C416.864 173.876 416.738 173.96 416.612 174.072L411.014 179.8V174.436C411.014 174.114 410.776 173.876 410.454 173.876C410.159 173.876 409.907 174.114 409.907 174.436V183.258ZM422.636 183.258C422.636 183.58 422.874 183.818 423.196 183.818C423.519 183.818 423.757 183.58 423.757 183.258V174.967H426.605C426.885 174.967 427.124 174.744 427.124 174.464C427.124 174.184 426.885 173.946 426.605 173.946H419.788C419.508 173.946 419.269 174.184 419.269 174.464C419.269 174.744 419.508 174.967 419.788 174.967H422.636V183.258ZM429.027 183.258C429.027 183.58 429.279 183.818 429.573 183.818C429.896 183.818 430.134 183.58 430.134 183.258V179.94H432.954L435.718 183.524C435.844 183.692 436.012 183.818 436.237 183.818C436.517 183.818 436.797 183.566 436.797 183.272C436.797 183.146 436.741 183.006 436.615 182.866L434.176 179.73C435.704 179.436 436.797 178.496 436.797 176.887V176.859C436.797 176.075 436.531 175.418 436.04 174.925C435.424 174.31 434.471 173.946 433.248 173.946H429.573C429.279 173.946 429.027 174.184 429.027 174.506V183.258ZM430.134 178.946V174.967H433.164C434.751 174.967 435.676 175.684 435.676 176.901V176.929C435.676 178.188 434.611 178.946 433.15 178.946H430.134ZM443.575 183.916C446.563 183.916 448.598 181.548 448.598 178.848V178.82C448.598 176.117 446.591 173.778 443.603 173.778C440.615 173.778 438.583 176.145 438.583 178.848V178.876C438.583 181.576 440.587 183.916 443.575 183.916ZM443.603 182.894C441.358 182.894 439.732 181.073 439.732 178.848V178.82C439.732 176.593 441.33 174.8 443.575 174.8C445.82 174.8 447.446 176.621 447.446 178.848V178.876C447.446 181.101 445.848 182.894 443.603 182.894ZM450.958 183.272C450.958 183.566 451.197 183.818 451.491 183.818C451.813 183.818 452.038 183.566 452.038 183.272V175.684L458.126 183.454C458.294 183.664 458.462 183.79 458.701 183.79H458.757C459.051 183.79 459.261 183.566 459.261 183.272V174.422C459.261 174.128 459.023 173.876 458.729 173.876C458.406 173.876 458.182 174.128 458.182 174.422V181.817L452.22 174.226C452.066 174.016 451.925 173.904 451.659 173.904H451.505C451.211 173.904 450.958 174.156 450.958 174.45V183.272ZM462.19 183.258C462.19 183.58 462.443 183.818 462.74 183.818C463.062 183.818 463.301 183.58 463.301 183.258V174.436C463.301 174.114 463.062 173.876 462.74 173.876C462.443 173.876 462.19 174.114 462.19 174.436V183.258ZM466.207 183.258C466.207 183.58 466.46 183.818 466.754 183.818C467.076 183.818 467.315 183.58 467.315 183.258V181.129L469.434 179.016L473.095 183.566C473.193 183.72 473.333 183.818 473.543 183.818C473.865 183.818 474.106 183.552 474.106 183.258C474.106 183.09 474.05 182.978 473.952 182.852L470.219 178.258L473.697 174.814C473.823 174.688 473.879 174.562 473.879 174.422C473.879 174.142 473.641 173.876 473.347 173.876C473.165 173.876 473.038 173.96 472.912 174.072L467.315 179.8V174.436C467.315 174.114 467.076 173.876 466.754 173.876C466.46 173.876 466.207 174.114 466.207 174.436V183.258Z" fill="#2C2E35"/>
<path d="M230.333 167.085C232.284 167.085 233.686 165.994 233.686 164.312V164.285C233.686 162.788 232.677 162.001 230.488 161.512C228.312 161.064 227.822 160.532 227.822 159.609V159.581C227.822 158.683 228.621 157.997 229.913 157.997C230.824 157.997 231.609 158.249 232.453 158.851C232.551 158.921 232.649 158.949 232.775 158.949C233.069 158.949 233.308 158.711 233.308 158.417C233.308 158.207 233.181 158.067 233.069 157.969C232.172 157.312 231.23 157.004 229.941 157.004C228.074 157.004 226.715 158.151 226.715 159.679V159.707C226.715 161.316 227.752 162.043 230.011 162.536C232.074 162.983 232.565 163.487 232.565 164.396V164.424C232.565 165.39 231.707 166.092 230.375 166.092C229.128 166.092 228.214 165.714 227.275 164.928C227.191 164.844 227.079 164.802 226.939 164.802C226.645 164.802 226.406 165.026 226.406 165.348C226.406 165.53 226.476 165.672 226.616 165.77C227.724 166.652 228.89 167.085 230.333 167.085ZM236.046 166.456C236.046 166.778 236.298 167.015 236.593 167.015C236.918 167.015 237.156 166.778 237.156 166.456V157.634C237.156 157.312 236.918 157.074 236.593 157.074C236.298 157.074 236.046 157.312 236.046 157.634V166.456ZM243.371 167.085C245.322 167.085 246.723 165.994 246.723 164.312V164.285C246.723 162.788 245.714 162.001 243.525 161.512C241.35 161.064 240.859 160.532 240.859 159.609V159.581C240.859 158.683 241.658 157.997 242.95 157.997C243.861 157.997 244.646 158.249 245.49 158.851C245.588 158.921 245.686 158.949 245.812 158.949C246.107 158.949 246.345 158.711 246.345 158.417C246.345 158.207 246.219 158.067 246.106 157.969C245.209 157.312 244.268 157.004 242.978 157.004C241.111 157.004 239.752 158.151 239.752 159.679V159.707C239.752 161.316 240.789 162.043 243.048 162.536C245.111 162.983 245.602 163.487 245.602 164.396V164.424C245.602 165.39 244.744 166.092 243.413 166.092C242.165 166.092 241.252 165.714 240.312 164.928C240.228 164.844 240.116 164.802 239.976 164.802C239.682 164.802 239.444 165.026 239.444 165.348C239.444 165.53 239.514 165.672 239.654 165.77C240.761 166.652 241.927 167.085 243.371 167.085ZM251.474 166.456C251.474 166.778 251.713 167.015 252.035 167.015C252.357 167.015 252.596 166.778 252.596 166.456V158.165H255.444C255.724 158.165 255.962 157.941 255.962 157.662C255.962 157.382 255.724 157.144 255.444 157.144H248.626C248.346 157.144 248.108 157.382 248.108 157.662C248.108 157.941 248.346 158.165 248.626 158.165H251.474V166.456ZM264.585 166.945C264.865 166.945 265.089 166.722 265.089 166.442C265.089 166.162 264.865 165.938 264.585 165.938H258.973V162.508H263.884C264.164 162.508 264.388 162.281 264.388 162.001C264.388 161.735 264.164 161.498 263.884 161.498H258.973V158.151H264.515C264.795 158.151 265.019 157.927 265.019 157.648C265.019 157.368 264.795 157.144 264.515 157.144H258.412C258.118 157.144 257.866 157.382 257.866 157.704V166.386C257.866 166.708 258.118 166.945 258.412 166.945H264.585ZM267.077 166.47C267.077 166.791 267.315 167.015 267.609 167.015C267.932 167.015 268.156 166.791 268.156 166.47V159.159L271.284 163.753C271.41 163.935 271.578 164.033 271.761 164.033C271.943 164.033 272.1 163.935 272.226 163.753L275.368 159.145V166.456C275.368 166.75 275.606 167.015 275.929 167.015C276.223 167.015 276.475 166.778 276.475 166.456V157.648C276.475 157.354 276.223 157.102 275.929 157.102H275.803C275.578 157.102 275.41 157.2 275.284 157.396L271.775 162.662L268.268 157.396C268.156 157.228 267.988 157.102 267.749 157.102H267.623C267.329 157.102 267.077 157.354 267.077 157.648V166.47ZM283.351 166.47C283.351 166.791 283.59 167.015 283.884 167.015C284.206 167.015 284.431 166.791 284.431 166.47V159.159L287.559 163.753C287.685 163.935 287.853 164.033 288.038 164.033C288.22 164.033 288.375 163.935 288.501 163.753L291.643 159.145V166.456C291.643 166.75 291.881 167.015 292.204 167.015C292.498 167.015 292.75 166.778 292.75 166.456V157.648C292.75 157.354 292.498 157.102 292.204 157.102H292.077C291.853 157.102 291.685 157.2 291.559 157.396L288.052 162.662L284.543 157.396C284.431 157.228 284.262 157.102 284.024 157.102H283.898C283.604 157.102 283.351 157.354 283.351 157.648V166.47ZM300.106 167.113C303.094 167.113 305.126 164.746 305.126 162.043V162.015C305.126 159.315 303.122 156.976 300.134 156.976C297.145 156.976 295.11 159.343 295.11 162.043V162.071C295.11 164.774 297.117 167.113 300.106 167.113ZM300.134 166.092C297.888 166.092 296.262 164.27 296.262 162.043V162.015C296.262 159.791 297.86 157.997 300.106 157.997C302.348 157.997 303.977 159.819 303.977 162.043V162.071C303.977 164.298 302.379 166.092 300.134 166.092ZM307.489 166.47C307.489 166.763 307.727 167.015 308.022 167.015C308.344 167.015 308.568 166.763 308.568 166.47V158.879L314.657 166.652C314.825 166.861 314.993 166.987 315.231 166.987H315.287C315.582 166.987 315.792 166.763 315.792 166.47V157.62C315.792 157.326 315.553 157.074 315.259 157.074C314.937 157.074 314.713 157.326 314.713 157.62V165.012L308.75 157.424C308.596 157.214 308.456 157.102 308.19 157.102H308.036C307.741 157.102 307.489 157.354 307.489 157.648V166.47ZM318.721 166.456C318.721 166.778 318.973 167.015 319.268 167.015C319.59 167.015 319.828 166.778 319.828 166.456V157.634C319.828 157.312 319.59 157.074 319.268 157.074C318.973 157.074 318.721 157.312 318.721 157.634V166.456ZM325.126 166.456C325.126 166.778 325.364 167.015 325.687 167.015C326.009 167.015 326.247 166.778 326.247 166.456V158.165H329.095C329.376 158.165 329.614 157.941 329.614 157.662C329.614 157.382 329.376 157.144 329.095 157.144H322.278C321.998 157.144 321.76 157.382 321.76 157.662C321.76 157.941 321.998 158.165 322.278 158.165H325.126V166.456ZM335.408 167.113C338.396 167.113 340.431 164.746 340.431 162.043V162.015C340.431 159.315 338.424 156.976 335.436 156.976C332.448 156.976 330.416 159.343 330.416 162.043V162.071C330.416 164.774 332.42 167.113 335.408 167.113ZM335.436 166.092C333.193 166.092 331.565 164.27 331.565 162.043V162.015C331.565 159.791 333.165 157.997 335.408 157.997C337.653 157.997 339.279 159.819 339.279 162.043V162.071C339.279 164.298 337.681 166.092 335.436 166.092ZM342.791 166.456C342.791 166.778 343.044 167.015 343.338 167.015C343.66 167.015 343.899 166.778 343.899 166.456V163.137H346.718L349.482 166.722C349.608 166.889 349.777 167.015 350.001 167.015C350.281 167.015 350.561 166.763 350.561 166.47C350.561 166.344 350.505 166.204 350.379 166.064L347.941 162.927C349.468 162.634 350.561 161.694 350.561 160.085V160.057C350.561 159.273 350.295 158.613 349.805 158.123C349.188 157.508 348.235 157.144 347.013 157.144H343.338C343.044 157.144 342.791 157.382 342.791 157.704V166.456ZM343.899 162.141V158.165H346.929C348.515 158.165 349.44 158.879 349.44 160.099V160.127C349.44 161.386 348.375 162.141 346.915 162.141H343.899ZM353.034 166.456C353.034 166.778 353.286 167.015 353.58 167.015C353.903 167.015 354.144 166.778 354.144 166.456V157.634C354.144 157.312 353.903 157.074 353.58 157.074C353.286 157.074 353.034 157.312 353.034 157.634V166.456ZM357.051 166.47C357.051 166.763 357.289 167.015 357.583 167.015C357.906 167.015 358.13 166.763 358.13 166.47V158.879L364.218 166.652C364.386 166.861 364.555 166.987 364.793 166.987H364.849C365.143 166.987 365.356 166.763 365.356 166.47V157.62C365.356 157.326 365.115 157.074 364.821 157.074C364.499 157.074 364.274 157.326 364.274 157.62V165.012L358.312 157.424C358.158 157.214 358.018 157.102 357.751 157.102H357.597C357.303 157.102 357.051 157.354 357.051 157.648V166.47ZM372.731 167.113C374.189 167.113 375.397 166.582 376.294 165.924C376.546 165.756 376.672 165.53 376.672 165.25V162.267C376.672 161.945 376.42 161.707 376.126 161.707H372.97C372.703 161.707 372.479 161.931 372.479 162.211C372.479 162.48 372.703 162.704 372.97 162.704H375.607V165.138C374.935 165.686 373.895 166.12 372.773 166.12C370.388 166.12 368.888 164.382 368.888 162.043V162.015C368.888 159.833 370.444 157.997 372.619 157.997C373.853 157.997 374.623 158.347 375.341 158.893C375.467 158.991 375.579 159.033 375.691 159.033C375.986 159.033 376.238 158.795 376.238 158.473C376.238 158.263 376.14 158.123 376.014 158.025C375.117 157.368 374.161 156.976 372.661 156.976C369.715 156.976 367.736 159.357 367.736 162.043V162.071C367.736 164.872 369.645 167.113 372.731 167.113ZM383.366 166.456C383.366 166.778 383.619 167.015 383.913 167.015C384.235 167.015 384.473 166.778 384.473 166.456V157.634C384.473 157.312 384.235 157.074 383.913 157.074C383.619 157.074 383.366 157.312 383.366 157.634V166.456ZM387.383 166.47C387.383 166.763 387.621 167.015 387.916 167.015C388.238 167.015 388.462 166.763 388.462 166.47V158.879L394.551 166.652C394.719 166.861 394.887 166.987 395.125 166.987H395.181C395.476 166.987 395.686 166.763 395.686 166.47V157.62C395.686 157.326 395.448 157.074 395.153 157.074C394.831 157.074 394.607 157.326 394.607 157.62V165.012L388.645 157.424C388.49 157.214 388.35 157.102 388.084 157.102H387.93C387.635 157.102 387.383 157.354 387.383 157.648V166.47ZM402.175 167.057C402.5 167.057 402.697 166.875 402.823 166.596L406.624 157.829C406.652 157.76 406.666 157.69 406.666 157.606C406.666 157.326 406.441 157.074 406.119 157.074C405.853 157.074 405.671 157.256 405.572 157.466L402.161 165.616L398.767 157.494C398.668 157.256 398.472 157.074 398.192 157.074C397.87 157.074 397.631 157.34 397.631 157.62C397.631 157.717 397.645 157.801 397.687 157.871L401.474 166.596C401.586 166.875 401.797 167.057 402.119 167.057H402.175ZM415.33 166.945C415.61 166.945 415.835 166.722 415.835 166.442C415.835 166.162 415.61 165.938 415.33 165.938H409.718V162.508H414.627C414.907 162.508 415.131 162.281 415.131 162.001C415.131 161.735 414.907 161.498 414.627 161.498H409.718V158.151H415.257C415.54 158.151 415.765 157.927 415.765 157.648C415.765 157.368 415.54 157.144 415.257 157.144H409.158C408.861 157.144 408.608 157.382 408.608 157.704V166.386C408.608 166.708 408.861 166.945 409.158 166.945H415.33ZM417.819 166.47C417.819 166.763 418.057 167.015 418.352 167.015C418.677 167.015 418.901 166.763 418.901 166.47V158.879L424.99 166.652C425.158 166.861 425.326 166.987 425.564 166.987H425.62C425.915 166.987 426.125 166.763 426.125 166.47V157.62C426.125 157.326 425.887 157.074 425.592 157.074C425.27 157.074 425.046 157.326 425.046 157.62V165.012L419.083 157.424C418.929 157.214 418.789 157.102 418.523 157.102H418.366C418.072 157.102 417.819 157.354 417.819 157.648V166.47ZM431.395 166.456C431.395 166.778 431.633 167.015 431.955 167.015C432.278 167.015 432.516 166.778 432.516 166.456V158.165H435.364C435.644 158.165 435.883 157.941 435.883 157.662C435.883 157.382 435.644 157.144 435.364 157.144H428.547C428.266 157.144 428.025 157.382 428.025 157.662C428.025 157.941 428.266 158.165 428.547 158.165H431.395V166.456ZM435.734 166.512C435.734 166.792 435.958 167.015 436.238 167.015C436.491 167.015 436.673 166.889 436.771 166.638L437.797 164.354H443.182L444.208 166.61C444.306 166.833 444.488 167.015 444.754 167.015C445.049 167.015 445.287 166.778 445.287 166.484C445.287 166.414 445.259 166.316 445.217 166.204L441.234 157.522C441.108 157.2 440.869 157.032 440.544 157.032H440.488C440.138 157.032 439.941 157.2 439.787 157.522L435.804 166.218C435.762 166.316 435.734 166.414 435.734 166.512ZM438.231 163.347L440.488 158.333L442.747 163.347H438.231ZM447.252 166.456C447.252 166.778 447.504 167.015 447.798 167.015C448.121 167.015 448.359 166.778 448.359 166.456V163.137H451.179L453.943 166.722C454.069 166.889 454.237 167.015 454.462 167.015C454.742 167.015 455.022 166.763 455.022 166.47C455.022 166.344 454.966 166.204 454.84 166.064L452.401 162.927C453.929 162.634 455.022 161.694 455.022 160.085V160.057C455.022 159.273 454.756 158.613 454.265 158.123C453.649 157.508 452.696 157.144 451.473 157.144H447.798C447.504 157.144 447.252 157.382 447.252 157.704V166.456ZM448.359 162.141V158.165H451.389C452.976 158.165 453.901 158.879 453.901 160.099V160.127C453.901 161.386 452.836 162.141 451.375 162.141H448.359ZM457.494 166.456C457.494 166.778 457.747 167.015 458.041 167.015C458.363 167.015 458.604 166.778 458.604 166.456V157.634C458.604 157.312 458.363 157.074 458.041 157.074C457.747 157.074 457.494 157.312 457.494 157.634V166.456ZM464.819 167.085C466.77 167.085 468.171 165.994 468.171 164.312V164.285C468.171 162.788 467.162 162.001 464.973 161.512C462.798 161.064 462.307 160.532 462.307 159.609V159.581C462.307 158.683 463.106 157.997 464.398 157.997C465.309 157.997 466.094 158.249 466.938 158.851C467.036 158.921 467.134 158.949 467.261 158.949C467.555 158.949 467.793 158.711 467.793 158.417C467.793 158.207 467.667 158.067 467.555 157.969C466.655 157.312 465.716 157.004 464.427 157.004C462.56 157.004 461.2 158.151 461.2 159.679V159.707C461.2 161.316 462.237 162.043 464.497 162.536C466.557 162.983 467.05 163.487 467.05 164.396V164.424C467.05 165.39 466.192 166.092 464.861 166.092C463.614 166.092 462.7 165.714 461.761 164.928C461.677 164.844 461.565 164.802 461.424 164.802C461.13 164.802 460.892 165.026 460.892 165.348C460.892 165.53 460.962 165.672 461.102 165.77C462.209 166.652 463.373 167.085 464.819 167.085ZM474.529 166.386C474.529 166.708 474.781 166.945 475.076 166.945H480.729C481.01 166.945 481.234 166.722 481.234 166.442C481.234 166.162 481.01 165.924 480.729 165.924H475.636V157.634C475.636 157.312 475.398 157.074 475.076 157.074C474.781 157.074 474.529 157.312 474.529 157.634V166.386ZM487.036 167.113C490.025 167.113 492.057 164.746 492.057 162.043V162.015C492.057 159.315 490.053 156.976 487.064 156.976C484.076 156.976 482.041 159.343 482.041 162.043V162.071C482.041 164.774 484.048 167.113 487.036 167.113ZM487.064 166.092C484.819 166.092 483.193 164.27 483.193 162.043V162.015C483.193 159.791 484.791 157.997 487.036 157.997C489.282 157.997 490.907 159.819 490.907 162.043V162.071C490.907 164.298 489.31 166.092 487.064 166.092ZM498.913 167.113C500.371 167.113 501.579 166.582 502.476 165.924C502.728 165.756 502.854 165.53 502.854 165.25V162.267C502.854 161.945 502.602 161.707 502.308 161.707H499.151C498.885 161.707 498.661 161.931 498.661 162.211C498.661 162.48 498.885 162.704 499.151 162.704H501.789V165.138C501.116 165.686 500.076 166.12 498.955 166.12C496.57 166.12 495.07 164.382 495.07 162.043V162.015C495.07 159.833 496.626 157.997 498.801 157.997C500.034 157.997 500.808 158.347 501.523 158.893C501.649 158.991 501.761 159.033 501.873 159.033C502.168 159.033 502.42 158.795 502.42 158.473C502.42 158.263 502.322 158.123 502.196 158.025C501.299 157.368 500.343 156.976 498.843 156.976C495.897 156.976 493.918 159.357 493.918 162.043V162.071C493.918 164.872 495.827 167.113 498.913 167.113ZM505.487 166.456C505.487 166.778 505.739 167.015 506.033 167.015C506.355 167.015 506.594 166.778 506.594 166.456V157.634C506.594 157.312 506.355 157.074 506.033 157.074C505.739 157.074 505.487 157.312 505.487 157.634V166.456ZM512.811 167.085C514.759 167.085 516.164 165.994 516.164 164.312V164.285C516.164 162.788 515.154 162.001 512.965 161.512C510.79 161.064 510.299 160.532 510.299 159.609V159.581C510.299 158.683 511.098 157.997 512.391 157.997C513.302 157.997 514.086 158.249 514.927 158.851C515.028 158.921 515.126 158.949 515.252 158.949C515.547 158.949 515.785 158.711 515.785 158.417C515.785 158.207 515.659 158.067 515.547 157.969C514.647 157.312 513.708 157.004 512.419 157.004C510.552 157.004 509.192 158.151 509.192 159.679V159.707C509.192 161.316 510.229 162.043 512.489 162.536C514.549 162.983 515.042 163.487 515.042 164.396V164.424C515.042 165.39 514.185 166.092 512.853 166.092C511.603 166.092 510.692 165.714 509.753 164.928C509.669 164.844 509.557 164.802 509.416 164.802C509.122 164.802 508.884 165.026 508.884 165.348C508.884 165.53 508.954 165.672 509.094 165.77C510.201 166.652 511.365 167.085 512.811 167.085ZM520.915 166.456C520.915 166.778 521.153 167.015 521.475 167.015C521.798 167.015 522.036 166.778 522.036 166.456V158.165H524.884C525.164 158.165 525.403 157.941 525.403 157.662C525.403 157.382 525.164 157.144 524.884 157.144H518.067C517.787 157.144 517.548 157.382 517.548 157.662C517.548 157.941 517.787 158.165 518.067 158.165H520.915V166.456ZM527.354 166.456C527.354 166.778 527.606 167.015 527.903 167.015C528.225 167.015 528.464 166.778 528.464 166.456V157.634C528.464 157.312 528.225 157.074 527.903 157.074C527.606 157.074 527.354 157.312 527.354 157.634V166.456ZM531.37 166.456C531.37 166.778 531.623 167.015 531.917 167.015C532.239 167.015 532.478 166.778 532.478 166.456V164.326L534.597 162.211L538.258 166.764C538.356 166.917 538.496 167.015 538.706 167.015C539.028 167.015 539.27 166.75 539.27 166.456C539.27 166.288 539.214 166.176 539.113 166.05L535.382 161.456L538.86 158.011C538.986 157.885 539.042 157.759 539.042 157.62C539.042 157.34 538.804 157.074 538.51 157.074C538.328 157.074 538.202 157.158 538.075 157.27L532.478 162.997V157.634C532.478 157.312 532.239 157.074 531.917 157.074C531.623 157.074 531.37 157.312 531.37 157.634V166.456Z" fill="#2C2E35"/>
<path d="M137.851 232.351C138.384 232.128 138.869 231.921 139.371 231.708C139.982 231.439 140.601 231.187 141.207 230.91C141.347 230.843 141.49 230.782 141.63 230.715C143.015 230.074 144.377 229.397 145.723 228.694C145.798 228.655 145.874 228.616 145.95 228.577C147.959 227.519 149.924 226.394 151.847 225.208C151.598 225.342 151.318 225.499 150.976 225.706C157.826 215.726 161.846 203.658 161.846 190.644C161.846 163.128 143.912 139.829 119.087 131.662C122.468 127.42 124.497 122.062 124.497 116.217C124.497 102.487 113.361 91.3505 99.5974 91.3505C85.8369 91.3505 74.7001 102.487 74.7001 116.217C74.7001 122.062 76.7324 127.42 80.1102 131.662C55.2858 139.832 37.3516 163.128 37.3516 190.644C37.3516 203.649 41.3712 215.706 48.2136 225.687C60.5781 233.146 74.6833 238.001 89.7977 239.478C89.7753 239.461 79.1879 234.562 78.2853 228.026C77.1361 228.345 75.9503 228.568 74.7001 228.568C67.2691 228.568 61.2536 222.567 61.2536 215.152C61.2536 207.74 67.2691 201.727 74.7001 201.727C81.4977 201.727 87.0507 206.775 87.9589 213.305C89.1082 212.986 90.2938 212.762 91.544 212.762C96.0879 212.762 100.082 215.023 102.515 218.468C102.557 218.442 102.448 218.454 102.487 218.428C109.321 227.189 120.083 232.844 132.069 232.844C134.039 232.844 135.962 232.645 137.851 232.351ZM48.2557 225.748C48.2416 225.728 48.2276 225.706 48.2136 225.687C47.9445 225.524 47.6642 225.376 47.3951 225.211C47.6838 225.387 47.9641 225.575 48.2557 225.748Z" fill="white"/>
<path d="M199.194 140.587V140.584C199.194 138.95 199.15 137.313 199.071 135.679C199.029 134.851 198.953 134.031 198.892 133.208C198.833 132.425 198.791 131.639 198.712 130.855C198.609 129.789 198.468 128.732 198.331 127.677C198.261 127.151 198.208 126.625 198.129 126.099C197.955 124.915 197.748 123.746 197.532 122.576C197.459 122.179 197.398 121.778 197.319 121.378C197.075 120.147 196.801 118.925 196.515 117.707C196.433 117.372 196.363 117.033 196.279 116.697C195.974 115.461 195.637 114.238 195.284 113.021C195.189 112.693 195.102 112.363 195.004 112.036C194.642 110.833 194.253 109.643 193.846 108.46C193.728 108.113 193.616 107.763 193.496 107.419C193.087 106.263 192.646 105.125 192.195 103.989C192.049 103.614 191.906 103.236 191.752 102.864C191.301 101.764 190.822 100.684 190.334 99.607C190.149 99.1985 189.969 98.7899 189.782 98.387C189.288 97.3378 188.767 96.3052 188.24 95.2784C188.024 94.8587 187.817 94.4362 187.592 94.0193C187.049 92.9952 186.477 91.9879 185.899 90.9862C185.664 90.5833 185.44 90.1748 185.201 89.7747C184.579 88.7338 183.929 87.7097 183.27 86.694C183.049 86.3527 182.836 86.0058 182.608 85.6644C181.854 84.5312 181.072 83.4204 180.273 82.3208C180.122 82.1137 179.982 81.9039 179.831 81.6968C176.722 77.483 173.288 73.5237 169.566 69.8555L99.586 1.52588e-05L29.1776 70.2808C28.83 70.6278 28.5076 70.9915 28.1656 71.3441C27.3611 72.1723 26.5538 73.0005 25.7774 73.8539C25.3205 74.3576 24.8916 74.878 24.4459 75.3873C23.8152 76.1147 23.1761 76.8338 22.565 77.5781C22.0661 78.1853 21.5924 78.8092 21.1102 79.4248C20.5916 80.0879 20.0647 80.7454 19.5601 81.4226C19.0556 82.1025 18.579 82.7937 18.0941 83.482C17.6456 84.1199 17.1887 84.7522 16.757 85.4013C16.2777 86.112 15.8264 86.834 15.3723 87.5559C14.9574 88.2106 14.5397 88.8597 14.1389 89.5256C13.7156 90.2307 13.312 90.947 12.9055 91.6633C12.5047 92.3684 12.1038 93.0736 11.7198 93.7899C11.3582 94.4642 11.019 95.1441 10.6742 95.8268C10.279 96.6103 9.88097 97.3937 9.50536 98.1883C9.21103 98.8067 8.93632 99.4335 8.65881 100.057C8.26638 100.93 7.87674 101.806 7.50953 102.693C7.28248 103.25 7.06944 103.81 6.8508 104.366C6.46957 105.335 6.09677 106.305 5.74638 107.285C5.57259 107.777 5.41 108.272 5.24462 108.768C4.88863 109.82 4.54105 110.872 4.21869 111.938C4.08695 112.38 3.96643 112.828 3.84029 113.272C3.52073 114.383 3.21238 115.5 2.93207 116.627C2.82555 117.055 2.73584 117.486 2.63493 117.917C2.36863 119.05 2.11077 120.186 1.88372 121.336C1.79122 121.804 1.71833 122.274 1.63423 122.741C1.43241 123.849 1.23338 124.954 1.0708 126.073C0.983902 126.65 0.922248 127.226 0.849367 127.805C0.717621 128.813 0.583058 129.823 0.484949 130.844C0.403659 131.667 0.356026 132.489 0.294357 133.312C0.238295 134.098 0.165378 134.882 0.126135 135.671C0.0448446 137.308 0 138.947 0 140.584V140.587C0 142.227 0.0448446 143.866 0.126135 145.503C0.165378 146.295 0.238295 147.075 0.294357 147.864C0.356026 148.687 0.403682 149.51 0.482169 150.33C0.583081 151.356 0.720401 152.372 0.852147 153.388C0.925028 153.959 0.983924 154.527 1.06802 155.095C1.2362 156.231 1.43521 157.355 1.63984 158.477C1.72393 158.925 1.794 159.376 1.8809 159.823C2.11356 161.004 2.37986 162.174 2.65456 163.34C2.74426 163.732 2.82833 164.124 2.92364 164.513C3.21797 165.696 3.54316 166.869 3.87673 168.035C3.98605 168.416 4.08695 168.794 4.20188 169.172C4.54666 170.327 4.92229 171.466 5.30912 172.602C5.44367 172.999 5.57261 173.396 5.71276 173.791C6.1052 174.899 6.52844 175.993 6.96012 177.084C7.1227 177.501 7.28251 177.921 7.4535 178.338C7.89359 179.404 8.35889 180.459 8.83542 181.508C9.02883 181.933 9.21664 182.364 9.41566 182.789C9.90901 183.836 10.4276 184.868 10.9546 185.895C11.1648 186.307 11.3694 186.718 11.5881 187.129C12.1543 188.192 12.7457 189.239 13.3512 190.28C13.553 190.632 13.7493 190.985 13.9567 191.335C14.6406 192.482 15.3526 193.609 16.0814 194.726C16.2272 194.95 16.3673 195.176 16.5159 195.4C23.9441 206.595 33.5784 216.198 44.8077 223.596C44.8133 223.601 44.8161 223.604 44.8217 223.607C45.9486 224.349 47.0978 225.054 48.2527 225.75C41.3851 215.759 37.3486 203.677 37.3486 190.646C37.3486 163.131 55.2857 139.831 80.1101 131.661C76.7295 127.422 74.6973 122.061 74.6973 116.216C74.6973 102.489 85.8367 91.3528 99.5972 91.3528C113.358 91.3528 124.497 102.489 124.497 116.216C124.497 122.061 122.465 127.422 119.084 131.661C143.909 139.831 161.846 163.131 161.846 190.646C161.846 203.66 157.823 215.725 150.973 225.708C155.259 223.126 159.301 220.199 163.135 217.026C163.289 216.897 163.446 216.769 163.598 216.64C172.215 209.421 179.62 200.812 185.378 191.091C185.395 191.063 185.412 191.035 185.428 191.007C186.225 189.659 186.99 188.293 187.724 186.905C187.797 186.763 187.87 186.617 187.946 186.472C188.613 185.196 189.255 183.903 189.869 182.594C189.964 182.389 190.054 182.182 190.149 181.975C190.726 180.719 191.281 179.454 191.808 178.173C191.901 177.94 191.99 177.705 192.083 177.473C192.588 176.214 193.072 174.944 193.527 173.659C193.613 173.413 193.692 173.167 193.779 172.918C194.216 171.648 194.634 170.372 195.023 169.076C195.099 168.816 195.169 168.553 195.245 168.293C195.615 167.02 195.968 165.738 196.288 164.446C196.361 164.146 196.422 163.85 196.492 163.55C196.789 162.3 197.072 161.046 197.322 159.778C197.395 159.401 197.457 159.023 197.524 158.645C197.743 157.459 197.955 156.27 198.132 155.069C198.205 154.555 198.261 154.034 198.328 153.517C198.466 152.453 198.609 151.393 198.712 150.318C198.791 149.535 198.833 148.751 198.892 147.968C198.953 147.143 199.029 146.326 199.071 145.495C199.15 143.861 199.194 142.224 199.194 140.587ZM61.2535 215.154C61.2535 222.569 67.269 228.571 74.6973 228.571C75.9474 228.571 77.1359 228.347 78.2824 228.028C79.1878 234.564 84.7436 239.606 91.5411 239.606C90.9244 239.606 90.333 239.519 89.7387 239.438C89.7696 239.458 89.8452 239.522 89.8564 239.525C90.6245 239.598 91.3925 239.643 92.1606 239.699C93.0015 239.76 93.8368 239.838 94.6806 239.88C97.9574 240.04 101.24 240.04 104.514 239.88C105.36 239.838 106.199 239.76 107.037 239.699C107.805 239.643 108.573 239.598 109.338 239.525C110.44 239.416 111.527 239.273 112.618 239.13C113.111 239.066 113.602 239.016 114.095 238.943C115.326 238.764 116.548 238.549 117.764 238.322C118.112 238.26 121.4 237.594 122.684 237.289C122.947 237.228 123.211 237.172 123.474 237.108C124.811 236.78 126.134 236.416 127.452 236.033C127.67 235.972 127.886 235.913 128.105 235.848C129.45 235.448 130.782 235.015 132.102 234.559C132.298 234.491 132.495 234.43 132.688 234.36C134.031 233.89 135.357 233.386 136.674 232.857C136.851 232.785 137.027 232.72 137.204 232.647C137.439 232.552 137.663 232.443 137.896 232.345C135.993 232.645 134.056 232.846 132.066 232.846C120.08 232.846 109.318 227.191 102.487 218.431C102.445 218.456 102.557 218.445 102.515 218.467C100.082 215.025 96.085 212.765 91.5411 212.765C90.2909 212.765 89.1052 212.989 87.9588 213.308C87.0506 206.777 81.4948 201.729 74.6973 201.729C67.269 201.729 61.2535 207.742 61.2535 215.154Z" fill="#32B2E4"/>
<path d="M254.391 140.978C270.057 140.978 281.054 132.9 281.054 118.507V118.3C281.054 105.664 272.754 100.384 258.021 96.5504C245.469 93.3411 242.357 91.7882 242.357 87.0232V86.8162C242.357 83.2963 245.572 80.501 251.694 80.501C256.673 80.501 261.654 82.261 266.946 85.3668C268.191 86.0915 269.435 86.5055 270.991 86.5055C275.139 86.5055 278.461 83.2962 278.461 79.1523C278.461 76.0465 276.695 73.8725 274.932 72.8372C268.398 68.6934 260.72 66.4157 251.902 66.4157C237.065 66.4157 226.483 75.1148 226.483 88.2655V88.4754C226.483 102.868 235.924 106.906 250.553 110.636C262.691 113.742 265.18 115.815 265.18 119.852V120.059C265.18 124.304 261.239 126.892 254.702 126.892C247.647 126.892 241.631 124.408 236.131 120.37C235.094 119.645 233.642 118.921 231.568 118.921C227.417 118.921 224.098 122.13 224.098 126.274C224.098 128.759 225.342 131.036 227.105 132.278C235.198 138.079 244.846 140.978 254.391 140.978ZM294.955 132.796C294.955 137.147 298.38 140.563 302.736 140.563C307.095 140.563 310.621 137.147 310.621 132.796V96.7575L324.421 117.989C326.08 120.474 328.155 122.026 331.059 122.026C333.965 122.026 336.04 120.474 337.699 117.989L351.706 96.4469V132.589C351.706 136.94 355.233 140.563 359.589 140.563C364.051 140.563 367.578 137.043 367.578 132.589V75.0112C367.578 70.5596 364.051 67.0369 359.589 67.0369H357.826C354.61 67.0369 352.329 68.3828 350.669 71.0773L331.266 102.558L311.969 71.1808C310.517 68.7969 308.132 67.0369 304.709 67.0369H302.943C298.484 67.0369 294.955 70.5596 294.955 75.0112V132.796ZM385.733 132.589C385.733 137.043 389.26 140.563 393.722 140.563C398.185 140.563 401.711 137.043 401.711 132.589V74.8043C401.711 70.3526 398.185 66.8299 393.722 66.8299C389.26 66.8299 385.733 70.3526 385.733 74.8043V132.589ZM419.867 131.968C419.867 136.422 423.393 139.942 427.856 139.942H465.412C469.456 139.942 472.672 136.733 472.672 132.693C472.672 128.655 469.456 125.443 465.412 125.443H435.842V74.8043C435.842 70.3526 432.315 66.8299 427.856 66.8299C423.393 66.8299 419.867 70.3526 419.867 74.8043V131.968ZM492.072 139.942H532.843C536.787 139.942 540.002 136.836 540.002 132.9C540.002 128.966 536.787 125.753 532.843 125.753H499.957V110.532H527.657C531.599 110.532 534.817 107.426 534.817 103.49C534.817 99.5555 531.599 96.3434 527.657 96.3434H499.957V81.6398H532.325C536.269 81.6398 539.484 78.5312 539.484 74.5972C539.484 70.6632 536.269 67.451 532.325 67.451H492.072C487.612 67.451 484.083 70.9737 484.083 75.4254V131.968C484.083 136.422 487.612 139.942 492.072 139.942Z" fill="#0F3040"/>
</svg>
