<svg width="48" height="48" viewBox="0 0 48 48" fill="none" xmlns="http://www.w3.org/2000/svg">
<path d="M18 42V44H14V42C12.9391 42 11.9217 41.5786 11.1716 40.8284C10.4214 40.0783 10 39.0609 10 38V8C10 6.93913 10.4214 5.92172 11.1716 5.17157C11.9217 4.42143 12.9391 4 14 4H34C35.0609 4 36.0783 4.42143 36.8284 5.17157C37.5786 5.92172 38 6.93913 38 8V38C38 39.0609 37.5786 40.0783 36.8284 40.8284C36.0783 41.5786 35.0609 42 34 42V44H30V42H18ZM14 8V18H34V8H14ZM14 38H34V22H14V38ZM16 26C16 24.8954 16.8954 24 18 24C19.1046 24 20 24.8954 20 26V28C20 29.1046 19.1046 30 18 30C16.8954 30 16 29.1046 16 28V26ZM16 14C16 12.8954 16.8954 12 18 12C19.1046 12 20 12.8954 20 14C20 15.1046 19.1046 16 18 16C16.8954 16 16 15.1046 16 14Z" fill="#073B4C"/>
</svg>
