<svg width="63" height="28" viewBox="0 0 63 28" fill="none" xmlns="http://www.w3.org/2000/svg">
<path d="M30.8438 23.1682C31.0963 23.1626 31.3413 23.256 31.5264 23.428C31.5425 23.4423 31.5519 23.4631 31.5527 23.4846C31.5504 23.5225 31.5194 23.5525 31.4814 23.553C31.4637 23.5533 31.4465 23.5465 31.4336 23.5344C31.2762 23.378 31.0627 23.2911 30.8408 23.2932C30.3943 23.2933 30.0566 23.6572 30.0566 24.1252V24.1301C30.0567 24.6001 30.4004 24.9669 30.8438 24.967C31.0729 24.9699 31.2932 24.8762 31.4502 24.7092C31.4622 24.696 31.4792 24.688 31.4971 24.6877C31.533 24.6893 31.5618 24.7183 31.5635 24.7541C31.5632 24.7721 31.5556 24.7893 31.543 24.802C31.3577 24.9906 31.1032 25.096 30.8389 25.092V25.0901C30.5876 25.0917 30.3466 24.9895 30.1719 24.8088C29.9973 24.6282 29.904 24.3841 29.9141 24.1331V24.1301C29.9069 23.8784 30.0017 23.6344 30.1768 23.4534C30.3517 23.2725 30.5921 23.1695 30.8438 23.1682ZM51.1221 23.3186C51.4108 23.151 51.767 23.1505 52.0566 23.3166C52.3464 23.4829 52.5255 23.7912 52.5264 24.1252V24.1301C52.5333 24.3831 52.4374 24.6277 52.2607 24.8088C52.0841 24.9899 51.8418 25.0926 51.5889 25.092V25.0901C51.337 25.0916 51.0948 24.9902 50.9189 24.8098C50.7431 24.6294 50.6482 24.3849 50.6562 24.1331V24.1301C50.6553 23.7961 50.8332 23.4864 51.1221 23.3186ZM26.8945 23.1702C27.1084 23.1622 27.3184 23.2301 27.4873 23.3616C27.5119 23.3788 27.5218 23.4101 27.5127 23.4387C27.5035 23.4672 27.4772 23.4869 27.4473 23.4866C27.4308 23.4868 27.4148 23.4807 27.4023 23.47C27.2575 23.3543 27.0769 23.2924 26.8916 23.2952C26.6177 23.2952 26.4365 23.4516 26.4365 23.6457V23.6506C26.4365 23.855 26.5462 23.974 26.9795 24.0598C27.4125 24.1457 27.5928 24.2998 27.5928 24.5706V24.5754C27.5928 24.8819 27.339 25.0861 26.9795 25.0862L26.9707 25.0832C26.7113 25.0866 26.4596 24.9936 26.2646 24.8225C26.2482 24.8099 26.2384 24.7905 26.2383 24.7698C26.2388 24.7317 26.2695 24.7011 26.3076 24.7004C26.324 24.7009 26.3397 24.7069 26.3525 24.717C26.5202 24.8788 26.7466 24.9662 26.9795 24.9592C27.2582 24.9591 27.4501 24.8015 27.4502 24.5891V24.5842C27.4502 24.3931 27.3459 24.2735 26.9238 24.1887C26.4774 24.0978 26.297 23.9462 26.2969 23.6643V23.6594C26.2969 23.3835 26.5491 23.1702 26.8945 23.1702ZM55.4297 23.1975C55.4645 23.1977 55.4937 23.2235 55.498 23.2581V25.0041C55.5011 25.0305 55.4891 25.0562 55.4668 25.0706C55.4442 25.0849 55.4152 25.0848 55.3926 25.0706C55.37 25.0563 55.3573 25.0307 55.3604 25.0041V23.2581C55.3647 23.2233 55.3947 23.1975 55.4297 23.1975ZM57.5488 23.1868C57.5859 23.1887 57.6165 23.2181 57.6191 23.2551C57.6188 23.2732 57.6108 23.2906 57.5977 23.303L56.8877 24.0188L57.6455 24.9456C57.6585 24.9592 57.666 24.9775 57.666 24.9963C57.6644 25.0352 57.6326 25.067 57.5938 25.0686C57.5731 25.0679 57.5539 25.0574 57.541 25.0413L56.7891 24.1223L56.3271 24.5901V25.0041C56.3302 25.0307 56.3175 25.0563 56.2949 25.0706C56.2722 25.0849 56.2434 25.0849 56.2207 25.0706C56.1983 25.0562 56.1864 25.0306 56.1895 25.0041V23.2581C56.1939 23.2235 56.2229 23.1976 56.2578 23.1975C56.2928 23.1975 56.3228 23.2233 56.3271 23.2581V24.4192L57.501 23.2073C57.5136 23.1946 57.5309 23.1872 57.5488 23.1868ZM46.2393 23.1887C46.2761 23.1909 46.306 23.2202 46.3086 23.2571C46.3082 23.2752 46.3003 23.2925 46.2871 23.3049L45.5781 24.0207L46.3428 24.9426C46.3562 24.9562 46.3639 24.9743 46.3643 24.9934C46.3622 25.0324 46.331 25.0632 46.292 25.0647C46.2713 25.0641 46.2522 25.0545 46.2393 25.0383L45.4873 24.1184L45.0244 24.5872V25.0002C45.0277 25.0268 45.0157 25.0532 44.9932 25.0676C44.9705 25.082 44.9416 25.0819 44.9189 25.0676C44.8963 25.0533 44.8835 25.0269 44.8867 25.0002H44.8789V23.2581C44.8833 23.2235 44.9124 23.1977 44.9473 23.1975C44.9823 23.1975 45.0122 23.2234 45.0166 23.2581V24.4211L46.1904 23.2092C46.2032 23.1964 46.2212 23.189 46.2393 23.1887ZM48.1689 23.2004C48.2039 23.2004 48.2324 23.2289 48.2324 23.2639C48.2322 23.2987 48.2038 23.3264 48.1689 23.3264H47.5742V25.0002C47.5775 25.0268 47.5654 25.0532 47.543 25.0676C47.5203 25.0819 47.4914 25.0819 47.4688 25.0676C47.4461 25.0533 47.4333 25.0269 47.4365 25.0002H47.4355V23.3264H46.8408C46.806 23.3264 46.7776 23.2987 46.7773 23.2639C46.7773 23.2289 46.8058 23.2004 46.8408 23.2004H48.1689ZM49.5205 23.1965C49.7123 23.1867 49.9 23.2521 50.0439 23.3791C50.134 23.4716 50.1848 23.5958 50.1846 23.7248V23.7297C50.1844 24.0412 49.9533 24.2191 49.6396 24.261L50.1689 24.9465C50.1811 24.9596 50.1884 24.9765 50.1895 24.9944C50.1879 25.0332 50.1569 25.064 50.1182 25.0657C50.0933 25.0641 50.0704 25.0509 50.0576 25.0295L49.4863 24.2854H48.873V25.0002C48.8763 25.0268 48.8643 25.0532 48.8418 25.0676C48.8192 25.0819 48.7902 25.0819 48.7676 25.0676C48.7449 25.0533 48.7321 25.0269 48.7354 25.0002V23.2649C48.7364 23.2272 48.767 23.1971 48.8047 23.1965H49.5205ZM32.8584 23.1819C32.8999 23.1831 32.9366 23.2093 32.9512 23.2483L33.7422 24.9641C33.7493 24.9772 33.7527 24.9921 33.7529 25.0071C33.7517 25.0427 33.7222 25.0711 33.6865 25.0706C33.655 25.0681 33.6277 25.0467 33.6172 25.0168L33.3994 24.5393H32.3018L32.085 25.0198C32.0761 25.049 32.0491 25.0699 32.0186 25.0706C31.9935 25.0714 31.9712 25.0567 31.9609 25.0354L31.9551 25.012C31.9551 24.9971 31.9582 24.9823 31.9648 24.969L32.7588 23.2483C32.7733 23.2094 32.8101 23.1832 32.8516 23.1819H32.8584ZM37.0908 23.1819C37.1325 23.183 37.169 23.2093 37.1836 23.2483L37.9746 24.9641C37.9817 24.9773 37.9861 24.9921 37.9863 25.0071C37.9851 25.0426 37.9554 25.0709 37.9199 25.0706C37.8881 25.0685 37.8609 25.047 37.8506 25.0168L37.6328 24.5393H36.5352L36.3174 25.0198C36.3085 25.0491 36.2816 25.07 36.251 25.0706C36.2259 25.0714 36.2036 25.0567 36.1934 25.0354L36.1875 25.012C36.1875 24.9971 36.1906 24.9823 36.1973 24.969L36.9922 23.2483C37.0068 23.2093 37.0433 23.183 37.085 23.1819H37.0908ZM54.5986 23.1897C54.6352 23.1897 54.6649 23.2195 54.665 23.2561V25.009C54.6653 25.0242 54.6599 25.0392 54.6494 25.05C54.6389 25.0608 54.6244 25.0673 54.6094 25.0676H54.5986C54.5699 25.064 54.5443 25.0465 54.5293 25.0217L53.252 23.4026V25.0041C53.2518 25.0407 53.2221 25.0706 53.1855 25.0706C53.1491 25.0705 53.1193 25.0406 53.1191 25.0041H53.1133V23.261C53.1141 23.2234 53.144 23.1927 53.1816 23.1916H53.2031C53.2312 23.1932 53.2569 23.2082 53.2725 23.2317L54.5322 24.8225V23.2561C54.5324 23.2196 54.5622 23.1899 54.5986 23.1897ZM35.0527 23.1965C35.2443 23.1868 35.4324 23.2521 35.5762 23.3791C35.6668 23.4712 35.7181 23.5956 35.7178 23.7248V23.7297C35.7176 24.0412 35.4864 24.2191 35.1729 24.261L35.7012 24.9465C35.7136 24.9595 35.7213 24.9765 35.7227 24.9944C35.7206 25.0329 35.6898 25.0634 35.6514 25.0657C35.6263 25.0639 35.6032 25.0508 35.5898 25.0295L35.0186 24.2854H34.4053V25.0002C34.4053 25.0247 34.3922 25.0476 34.3711 25.0598C34.3499 25.072 34.3239 25.072 34.3027 25.0598C34.2922 25.0537 34.2832 25.0455 34.2773 25.0354L34.2695 25.0022V23.2649C34.2701 23.2273 34.3003 23.1971 34.3379 23.1965H35.0527ZM29.4316 23.2004C29.4666 23.2004 29.4951 23.2289 29.4951 23.2639C29.4949 23.2987 29.4665 23.3264 29.4316 23.3264H28.2979V24.0588H29.3105C29.3453 24.0591 29.373 24.0875 29.373 24.1223C29.3728 24.157 29.3452 24.1846 29.3105 24.1848H28.2979V24.9319H29.4453C29.4773 24.9361 29.501 24.964 29.501 24.9963C29.5009 25.0286 29.4772 25.0556 29.4453 25.0598H28.2285C28.191 25.0585 28.1607 25.0281 28.1602 24.9905V23.2688C28.1607 23.2314 28.1911 23.2012 28.2285 23.2004H29.4316ZM40.6904 23.2004C40.7252 23.2007 40.7529 23.2291 40.7529 23.2639C40.7527 23.2985 40.7251 23.3262 40.6904 23.3264H39.5576V24.0588H40.5703C40.6053 24.0588 40.6338 24.0873 40.6338 24.1223C40.6336 24.1571 40.6052 24.1848 40.5703 24.1848H39.5566V24.9319H40.708C40.7402 24.936 40.7646 24.9639 40.7646 24.9963C40.7645 25.0287 40.7401 25.0557 40.708 25.0598H39.4883C39.4505 25.0587 39.4205 25.0282 39.4199 24.9905V23.2688C39.4205 23.2312 39.4507 23.201 39.4883 23.2004H40.6904ZM41.3486 23.1897C41.3863 23.1897 41.4178 23.2204 41.418 23.2581V24.9319H42.4629C42.4951 24.936 42.5195 24.9639 42.5195 24.9963C42.5194 25.0287 42.495 25.0557 42.4629 25.0598H41.3555C41.3177 25.0587 41.2876 25.0282 41.2871 24.9905H41.2803V23.2581C41.2804 23.2205 41.3111 23.1899 41.3486 23.1897ZM44.29 23.2004C44.325 23.2004 44.3535 23.2289 44.3535 23.2639C44.3533 23.2987 44.3249 23.3264 44.29 23.3264H43.1582V24.0588H44.1709C44.2057 24.059 44.2344 24.0874 44.2344 24.1223C44.2341 24.157 44.2056 24.1846 44.1709 24.1848H43.1582V24.9319H44.3096C44.3417 24.936 44.3662 24.9639 44.3662 24.9963C44.3661 25.0286 44.3416 25.0557 44.3096 25.0598H43.0898C43.0517 25.0593 43.0201 25.0286 43.0195 24.9905V23.2688C43.0206 23.231 43.0521 23.201 43.0898 23.2004H44.29ZM51.5781 23.2961C51.1184 23.2962 50.7891 23.6684 50.7891 24.1282V24.1331C50.781 24.3514 50.8629 24.5636 51.0146 24.7209C51.1663 24.8781 51.3753 24.9672 51.5938 24.967L51.583 24.9651C52.0429 24.9651 52.373 24.5929 52.373 24.1331C52.3816 23.9159 52.302 23.7047 52.1523 23.5471C52.0026 23.3895 51.7955 23.2987 51.5781 23.2961ZM32.3633 24.4143H33.3438L32.8545 23.3381L32.3633 24.4143ZM36.5967 24.4143H37.5762L37.0869 23.3381L36.5967 24.4143ZM34.4053 24.1653L35.0332 24.1672C35.3446 24.1671 35.5752 24.0091 35.5752 23.7415V23.7356C35.5752 23.4842 35.3782 23.3264 35.041 23.3264H34.4053V24.1653ZM48.873 24.1653L49.501 24.1672C49.8115 24.1672 50.042 24.0091 50.042 23.7415V23.7356C50.042 23.4842 49.846 23.3264 49.5088 23.3264H48.873V24.1653Z" fill="#003142"/>
<path d="M52.2002 20.1016C52.452 20.1002 52.6934 20.2015 52.8691 20.3819C53.0448 20.5622 53.1398 20.806 53.1318 21.0576V21.0635C53.1387 21.3162 53.0427 21.5611 52.8662 21.7422C52.6897 21.9232 52.4472 22.0248 52.1943 22.0244V22.0215C51.9424 22.0232 51.7004 21.9226 51.5244 21.7422C51.3485 21.5618 51.2537 21.3173 51.2617 21.0654V21.0635C51.2548 20.8105 51.3506 20.565 51.5273 20.3838C51.7041 20.2027 51.9471 20.1009 52.2002 20.1016ZM54.5439 20.1035C54.7732 20.095 54.9984 20.1671 55.1797 20.3076C55.1965 20.3214 55.2061 20.3425 55.2061 20.3643C55.205 20.4022 55.1746 20.4325 55.1367 20.4336C55.1208 20.4318 55.1056 20.4249 55.0938 20.4141C54.937 20.2855 54.7387 20.2191 54.5361 20.2266C54.0846 20.2266 53.7688 20.6082 53.7686 21.0576V21.0635C53.7687 21.5436 54.0689 21.9033 54.5654 21.9033C54.7814 21.9011 54.9904 21.8255 55.1582 21.6895V21.1563H54.5791C54.5544 21.1594 54.53 21.1479 54.5166 21.127C54.5032 21.1059 54.5032 21.0787 54.5166 21.0576C54.53 21.0367 54.5545 21.0252 54.5791 21.0283H55.2217C55.2597 21.0289 55.2903 21.0597 55.291 21.0977V21.7061C55.287 21.7382 55.2697 21.7676 55.2432 21.7861C55.0488 21.9399 54.8083 22.0233 54.5605 22.0244L54.5596 22.0215C53.972 22.0215 53.6241 21.5886 53.624 21.0654C53.624 20.5627 53.9891 20.1036 54.5439 20.1035ZM31.0693 20.1192C31.107 20.1193 31.1377 20.1498 31.1377 20.1875V21.2002C31.1377 21.7336 30.8267 22.0176 30.375 22.0176V22.0205C29.9286 22.0205 29.6134 21.7397 29.6133 21.2188V20.1904C29.6176 20.1557 29.6466 20.13 29.6816 20.1299C29.7167 20.1299 29.7467 20.1556 29.751 20.1904V21.2051C29.751 21.6433 29.9877 21.8963 30.3809 21.8965C30.7579 21.8965 31.0009 21.6683 31.001 21.2188V20.1875C31.001 20.1497 31.0315 20.1192 31.0693 20.1192ZM57.2793 20.1035C57.4932 20.0955 57.7032 20.1635 57.8721 20.2949C57.8967 20.3121 57.9076 20.3435 57.8984 20.3721C57.8892 20.4004 57.8628 20.4191 57.833 20.419C57.8165 20.4192 57.7996 20.4141 57.7871 20.4033C57.6423 20.2876 57.4617 20.2257 57.2764 20.2285C57.0026 20.2286 56.8223 20.385 56.8223 20.5791V20.584C56.8223 20.7883 56.9311 20.9073 57.3643 20.9932C57.7975 21.079 57.9775 21.2331 57.9775 21.5039V21.5088C57.9775 21.8154 57.7239 22.0195 57.3643 22.0195L57.3564 22.0166C57.097 22.0201 56.8454 21.927 56.6504 21.7559C56.6338 21.7433 56.6242 21.7239 56.624 21.7031C56.6246 21.665 56.6552 21.6344 56.6934 21.6338C56.7096 21.6344 56.7255 21.6394 56.7383 21.6494C56.9059 21.8112 57.1314 21.8985 57.3643 21.8916C57.643 21.8916 57.8357 21.7348 57.8359 21.5225V21.5166C57.8358 21.3257 57.7312 21.2059 57.3096 21.1211C56.8632 21.0302 56.6818 20.8794 56.6816 20.5977V20.5918C56.6818 20.3162 56.9342 20.1037 57.2793 20.1035ZM35.4033 20.1026C35.617 20.0949 35.8262 20.1629 35.9951 20.294C36.0127 20.3068 36.024 20.3269 36.0244 20.3486C36.0245 20.3756 36.0088 20.4006 35.9844 20.4121C35.9599 20.4235 35.9308 20.4196 35.9102 20.4024C35.7654 20.2863 35.5839 20.2244 35.3984 20.2276C35.1258 20.2277 34.9453 20.3841 34.9453 20.5781V20.583C34.9453 20.7873 35.0535 20.9054 35.4863 20.9912C35.9196 21.0771 36.0996 21.2321 36.0996 21.5029V21.5078C36.0996 21.8143 35.845 22.0186 35.4863 22.0186L35.4795 22.0156C35.22 22.0191 34.9685 21.9261 34.7734 21.7549C34.7569 21.7423 34.7473 21.7229 34.7471 21.7022C34.7476 21.6644 34.7777 21.6339 34.8154 21.6328C34.8317 21.6332 34.8476 21.6383 34.8604 21.6485C35.0282 21.8104 35.2542 21.8977 35.4873 21.8906C35.7661 21.8906 35.9577 21.7338 35.958 21.5215V21.5156C35.9579 21.3247 35.8544 21.2049 35.4316 21.1201C34.9853 21.0292 34.8049 20.8784 34.8047 20.5967V20.5908C34.8048 20.3151 35.058 20.1026 35.4033 20.1026ZM39.3877 20.1026C39.6014 20.0946 39.8107 20.1627 39.9795 20.294C39.9988 20.3091 40.0093 20.3331 40.0059 20.3574C40.0024 20.3818 39.9857 20.4029 39.9629 20.4121C39.9404 20.421 39.9147 20.4172 39.8955 20.4024C39.7507 20.2864 39.5692 20.2246 39.3838 20.2276C39.1102 20.2277 38.9297 20.3841 38.9297 20.5781V20.583C38.9297 20.7873 39.0399 20.9054 39.4717 20.9912C39.9039 21.0771 40.085 21.2321 40.085 21.5029V21.5078C40.0849 21.8143 39.8303 22.0186 39.4717 22.0186L39.4648 22.0156C39.2051 22.019 38.9533 21.926 38.7578 21.7549C38.7413 21.7423 38.7317 21.7229 38.7314 21.7022C38.732 21.664 38.7626 21.6334 38.8008 21.6328C38.8171 21.6332 38.833 21.6383 38.8457 21.6485C39.0132 21.8102 39.2389 21.8975 39.4717 21.8906C39.7515 21.8906 39.9431 21.7338 39.9434 21.5215V21.5156C39.9433 21.3247 39.8388 21.2049 39.417 21.1201C38.9707 21.0292 38.7893 20.8784 38.7891 20.5967V20.5908C38.7892 20.3151 39.0424 20.1026 39.3877 20.1026ZM62.5273 20.1172C62.5642 20.1193 62.5937 20.1487 62.5957 20.1856C62.5957 20.2036 62.5882 20.2209 62.5752 20.2334L61.8652 20.9492L62.6221 21.876C62.6427 21.8963 62.6496 21.9273 62.6387 21.9541C62.6277 21.9809 62.6012 21.998 62.5723 21.9981C62.5515 21.9976 62.5314 21.9881 62.5186 21.9717L61.7666 21.0518L61.3047 21.5195V21.9336C61.3079 21.9602 61.296 21.9866 61.2734 22.001C61.2508 22.0153 61.2219 22.0152 61.1992 22.001C61.1765 21.9866 61.1637 21.9603 61.167 21.9336V20.1904C61.1713 20.1556 61.2012 20.1299 61.2363 20.1299C61.2713 20.1301 61.3004 20.1557 61.3047 20.1904V21.3496L62.4795 20.1377C62.4921 20.1247 62.5093 20.1173 62.5273 20.1172ZM34.1162 20.1299C34.1511 20.1301 34.1803 20.1558 34.1846 20.1904V21.9326C34.1878 21.9592 34.1759 21.9856 34.1533 22C34.1307 22.0143 34.1017 22.0142 34.0791 22C34.0564 21.9857 34.0436 21.9593 34.0469 21.9326V20.1904C34.0512 20.1556 34.0811 20.1299 34.1162 20.1299ZM40.7324 20.1299C40.7675 20.1299 40.7975 20.1556 40.8018 20.1904V21.9326C40.805 21.9593 40.7922 21.9857 40.7695 22C40.7469 22.0143 40.7179 22.0143 40.6953 22C40.6727 21.9857 40.6608 21.9592 40.6641 21.9326V20.1904C40.6684 20.1557 40.6974 20.13 40.7324 20.1299ZM27.2764 20.1279C27.3045 20.1294 27.3312 20.1444 27.3467 20.168L28.0723 21.2363L28.7969 20.168C28.8114 20.1439 28.8381 20.1287 28.8662 20.1279H28.8789C28.9165 20.129 28.9465 20.1597 28.9473 20.1973V21.9346C28.9473 21.9724 28.9167 22.0029 28.8789 22.0029C28.8412 22.0028 28.8105 21.9723 28.8105 21.9346V20.3789L28.127 21.3721C28.1153 21.3932 28.0925 21.4063 28.0684 21.4063C28.0444 21.4061 28.0224 21.3931 28.0107 21.3721L27.3262 20.377V21.9326C27.3293 21.958 27.3174 21.9833 27.2959 21.9971C27.2742 22.0108 27.2463 22.0108 27.2246 21.9971C27.2139 21.9903 27.2055 21.9807 27.2002 21.9697L27.1953 21.9404V20.1973C27.196 20.1597 27.2261 20.129 27.2637 20.1279H27.2764ZM45.2119 20.1172C45.2536 20.1183 45.2901 20.1446 45.3047 20.1836L46.0967 21.8994C46.1036 21.9126 46.1076 21.9275 46.1074 21.9424C46.1061 21.9779 46.0766 22.0064 46.041 22.0059C46.0096 22.0035 45.9828 21.982 45.9727 21.9522L45.7539 21.4736H44.6572L44.4512 21.9522C44.4423 21.9814 44.4153 22.0013 44.3848 22.002C44.3512 22.0031 44.3226 21.9778 44.3203 21.9444L44.3086 21.9473C44.3092 21.9323 44.3135 21.9176 44.3203 21.9043L45.1143 20.1836C45.1288 20.1446 45.1654 20.1183 45.207 20.1172H45.2119ZM55.9941 20.1221C56.0317 20.1226 56.0619 20.1529 56.0625 20.1904V21.9336C56.062 21.9714 56.0319 22.0018 55.9941 22.0029C55.956 22.0024 55.9254 21.9718 55.9248 21.9336V20.1904C55.9259 20.1527 55.9564 20.1226 55.9941 20.1221ZM60.4062 20.1221C60.444 20.1226 60.4754 20.1527 60.4766 20.1904V21.9336C60.476 21.9718 60.4444 22.0024 60.4062 22.0029C60.3687 22.0016 60.3384 21.9712 60.3379 21.9336V20.1904C60.3385 20.153 60.3689 20.1229 60.4062 20.1221ZM37.4111 20.1143C37.4527 20.1155 37.4894 20.1417 37.5039 20.1807L38.2969 21.8965C38.3033 21.9098 38.3074 21.9247 38.3076 21.9395C38.3063 21.975 38.2758 22.0025 38.2402 22.002C38.2088 21.9995 38.1813 21.9791 38.1709 21.9492L37.9531 21.4707H36.8574L36.6387 21.9522C36.6301 21.9816 36.6029 22.0017 36.5723 22.002C36.5391 22.0026 36.5111 21.9774 36.5088 21.9444H36.5039C36.5044 21.9296 36.5075 21.9148 36.5137 21.9014L37.3086 20.1807C37.3231 20.1418 37.3599 20.1155 37.4014 20.1143H37.4111ZM48.0977 20.1221C48.1343 20.1221 48.1641 20.1518 48.1641 20.1885V21.9414C48.1642 21.9564 48.1587 21.9707 48.1484 21.9815C48.138 21.9923 48.1235 21.9987 48.1084 21.999H48.0977C48.0692 21.9955 48.0438 21.9789 48.0293 21.9541L46.7666 20.335V21.9356C46.7666 21.9722 46.7368 22.0019 46.7002 22.002C46.6635 22.002 46.6338 21.9722 46.6338 21.9356H46.6182V20.1934C46.6188 20.1558 46.6489 20.1252 46.6865 20.124H46.708C46.7362 20.1255 46.7618 20.1405 46.7773 20.1641L48.0312 21.7549V20.1885C48.0312 20.1519 48.0611 20.1222 48.0977 20.1221ZM59.7627 20.1319C59.7976 20.1319 59.826 20.1605 59.8262 20.1953C59.8262 20.2303 59.7977 20.2588 59.7627 20.2588H59.167V21.9336C59.167 21.9714 59.1364 22.002 59.0986 22.002C59.0608 22.0019 59.0303 21.9714 59.0303 21.9336V20.2588H58.4346C58.3996 20.2588 58.3711 20.2303 58.3711 20.1953C58.3713 20.1605 58.3997 20.1319 58.4346 20.1319H59.7627ZM26.4678 20.1309C26.4889 20.1431 26.5019 20.166 26.502 20.1904V21.9326C26.502 21.9571 26.489 21.98 26.4678 21.9922C26.4466 22.0043 26.4205 22.0044 26.3994 21.9922C26.3887 21.986 26.3799 21.9772 26.374 21.9668L26.3652 21.9326V20.1904C26.3653 20.166 26.3783 20.1431 26.3994 20.1309C26.4205 20.1188 26.4467 20.1188 26.4678 20.1309ZM33.2803 20.1221C33.317 20.1221 33.3467 20.1518 33.3467 20.1885V21.9414C33.3471 21.9565 33.3416 21.9715 33.3311 21.9824C33.3206 21.9932 33.306 21.9989 33.291 21.999H33.2803C33.2517 21.9956 33.2264 21.979 33.2119 21.9541L31.9385 20.335V21.9326C31.9385 21.9693 31.9088 21.999 31.8721 21.999C31.8355 21.9989 31.8057 21.9693 31.8057 21.9326L31.8008 21.9356V20.1934C31.8014 20.1557 31.8315 20.1251 31.8691 20.124H31.8906C31.9188 20.1255 31.9444 20.1405 31.96 20.1641L33.2139 21.7549V20.1885C33.2139 20.1519 33.2437 20.1222 33.2803 20.1221ZM43.002 20.1377C43.5811 20.1378 43.99 20.5327 43.9902 21.0567V21.0625C43.9901 21.5835 43.5862 21.9921 43.002 21.9922H42.4512C42.4135 21.9911 42.3835 21.9605 42.3828 21.9229V20.2061C42.3834 20.1685 42.4136 20.1383 42.4512 20.1377H43.002ZM49.7998 20.1299C49.8349 20.1299 49.8649 20.1556 49.8691 20.1904V21.8643H50.918C50.9426 21.8612 50.9671 21.8727 50.9805 21.8936C50.9938 21.9146 50.9938 21.9418 50.9805 21.9629C50.9671 21.9838 50.9426 21.9953 50.918 21.9922H49.8105C49.7729 21.9911 49.7428 21.9605 49.7422 21.9229H49.7305V20.1904C49.7347 20.1556 49.7647 20.1299 49.7998 20.1299ZM52.1943 20.2266C51.7348 20.2268 51.4055 20.5981 51.4053 21.0576V21.1445C51.4169 21.3326 51.495 21.5116 51.626 21.6494C51.7757 21.807 51.9829 21.8978 52.2002 21.9004V21.8975C52.6598 21.8973 52.9882 21.5251 52.9883 21.0654V20.9824C52.977 20.7942 52.8995 20.6146 52.7686 20.4766C52.619 20.3191 52.4115 20.2292 52.1943 20.2266ZM42.5205 21.8643L43.002 21.8623C43.5199 21.8622 43.8466 21.5088 43.8467 21.0654V21.0625C43.8467 20.6211 43.5199 20.2589 43.002 20.2588H42.5205V21.8643ZM36.917 21.3467H37.8906L37.4014 20.2705L36.917 21.3467ZM44.7285 21.3467H45.709L45.2207 20.2705L44.7285 21.3467Z" fill="#003142"/>
<path d="M48.1201 17.0407C48.372 17.0392 48.6142 17.1405 48.79 17.321C48.9655 17.5013 49.0597 17.7453 49.0518 17.9968V18.0026C49.0586 18.2568 48.9624 18.503 48.7842 18.6843C48.6059 18.8656 48.3608 18.9662 48.1064 18.9636L48.1152 18.9587C47.8633 18.9605 47.6213 18.8597 47.4453 18.6794C47.2694 18.499 47.1737 18.2545 47.1816 18.0026C47.1747 17.7496 47.2715 17.5041 47.4482 17.3229C47.6249 17.142 47.8672 17.0401 48.1201 17.0407ZM40.5635 17.1882C40.8523 17.0204 41.2093 17.019 41.499 17.1852C41.7886 17.3515 41.9678 17.6599 41.9688 17.9938V17.9987C41.9757 18.2516 41.8797 18.4973 41.7031 18.6784C41.5264 18.8596 41.2834 18.9613 41.0303 18.9606V18.9587C40.7783 18.9602 40.5362 18.8588 40.3604 18.6784C40.1849 18.4981 40.0907 18.2541 40.0986 18.0026V17.9987C40.0979 17.6649 40.2748 17.3559 40.5635 17.1882ZM55.5742 17.0397C55.8031 17.0312 56.0281 17.1033 56.209 17.2438C56.2261 17.2573 56.2358 17.2787 56.2354 17.3005C56.2347 17.338 56.2045 17.3685 56.167 17.3698C56.151 17.3682 56.1358 17.3612 56.124 17.3503C55.9671 17.2218 55.7681 17.1545 55.5654 17.1618C55.114 17.162 54.797 17.5444 54.7969 17.9938V17.9987C54.7969 18.479 55.098 18.8395 55.5957 18.8395C55.8116 18.8372 56.0208 18.7617 56.1885 18.6257V18.0925H55.6084C55.5838 18.0955 55.5592 18.0841 55.5459 18.0632C55.5326 18.0422 55.5326 18.0149 55.5459 17.9938C55.5592 17.9728 55.5837 17.9615 55.6084 17.9645H56.251C56.2887 17.9656 56.3198 17.9961 56.3203 18.0339V18.6423C56.3167 18.6743 56.2988 18.7028 56.2725 18.7214C56.0778 18.8753 55.837 18.9597 55.5889 18.9606V18.9587C55.0027 18.9585 54.6545 18.5256 54.6543 18.0026V18.0016C54.6543 17.4989 55.0183 17.0397 55.5742 17.0397ZM26.8945 17.0397C27.1084 17.0317 27.3184 17.0997 27.4873 17.2311C27.5116 17.2483 27.5216 17.2789 27.5127 17.3073C27.5035 17.3359 27.4773 17.3555 27.4473 17.3552C27.4308 17.3554 27.4148 17.3493 27.4023 17.3386C27.2576 17.2229 27.0769 17.162 26.8916 17.1647C26.6179 17.1647 26.4368 17.3204 26.4365 17.5143V17.5202C26.4366 17.7244 26.5464 17.8426 26.9795 17.9284C27.4123 18.0142 27.5926 18.1687 27.5928 18.4391V18.445C27.5926 18.7513 27.3389 18.9556 26.9795 18.9558L26.9707 18.9528C26.7113 18.9562 26.4596 18.8632 26.2646 18.6921C26.2482 18.6795 26.2386 18.66 26.2383 18.6393C26.2388 18.6012 26.2695 18.5697 26.3076 18.569C26.3239 18.5695 26.3397 18.5756 26.3525 18.5856C26.5202 18.7475 26.7466 18.8348 26.9795 18.8278C27.2583 18.8277 27.4502 18.6702 27.4502 18.4577V18.4528C27.4502 18.2618 27.3458 18.1421 26.9238 18.0573C26.4774 17.9664 26.2969 17.8149 26.2969 17.5329V17.528C26.2969 17.2521 26.5492 17.0397 26.8945 17.0397ZM29.5264 17.0397C29.7403 17.0317 29.9502 17.0997 30.1191 17.2311C30.1385 17.2463 30.149 17.2703 30.1455 17.2946C30.142 17.3189 30.1253 17.3392 30.1025 17.3483C30.0798 17.3575 30.0535 17.3537 30.0342 17.3386C29.8895 17.2229 29.7087 17.1618 29.5234 17.1647C29.2499 17.1648 29.0696 17.3205 29.0693 17.5143V17.5202C29.0694 17.7244 29.1795 17.8426 29.6113 17.9284C30.0433 18.0142 30.2244 18.1686 30.2246 18.4391V18.445C30.2245 18.7514 29.9699 18.9558 29.6113 18.9558L29.6045 18.9528C29.3448 18.9562 29.0929 18.8632 28.8975 18.6921C28.881 18.6795 28.8714 18.66 28.8711 18.6393C28.8716 18.6012 28.9023 18.5696 28.9404 18.569C28.9567 18.5694 28.9726 18.5754 28.9854 18.5856C29.1532 18.7475 29.3792 18.8349 29.6123 18.8278C29.8913 18.8278 30.083 18.6703 30.083 18.4577V18.4528C30.083 18.2618 29.9784 18.1421 29.5566 18.0573C29.1101 17.9664 28.9287 17.8149 28.9287 17.5329V17.528C28.9288 17.2522 29.1812 17.0399 29.5264 17.0397ZM44.8662 17.0661C44.9012 17.0662 44.9303 17.0928 44.9346 17.1276V18.8727C44.9378 18.8993 44.9259 18.9258 44.9033 18.9401C44.8807 18.9544 44.8517 18.9543 44.8291 18.9401C44.8064 18.9258 44.7936 18.8994 44.7969 18.8727V17.1276C44.8011 17.0928 44.8311 17.0661 44.8662 17.0661ZM46.834 17.069C46.8688 17.0692 46.8964 17.0977 46.8965 17.1325C46.8965 17.1674 46.8688 17.1958 46.834 17.196H46.2393V18.8727C46.2425 18.8994 46.2297 18.9258 46.207 18.9401C46.1844 18.9544 46.1555 18.9544 46.1328 18.9401C46.1101 18.9258 46.0973 18.8994 46.1006 18.8727L46.0996 18.8698V17.196H45.5049C45.47 17.1958 45.4414 17.1674 45.4414 17.1325C45.4415 17.0977 45.47 17.0692 45.5049 17.069H46.834ZM50.4229 17.0651C50.6142 17.0555 50.8017 17.121 50.9453 17.2477C51.0357 17.3399 51.0866 17.4644 51.0859 17.5934V17.6013C51.0859 17.9129 50.8557 18.0916 50.542 18.1335L51.0703 18.819C51.0828 18.832 51.0905 18.8489 51.0918 18.8669C51.0897 18.9054 51.059 18.936 51.0205 18.9382C50.9954 18.9364 50.9723 18.9224 50.959 18.9011L50.3877 18.1579H49.7744V18.8727C49.7777 18.8993 49.7657 18.9257 49.7432 18.9401C49.7206 18.9544 49.6916 18.9543 49.6689 18.9401C49.6463 18.9258 49.6335 18.8994 49.6367 18.8727L49.6377 18.8708V17.1335C49.6389 17.0959 49.6694 17.0657 49.707 17.0651H50.4229ZM32.0088 17.069C32.0437 17.069 32.0722 17.0976 32.0723 17.1325C32.0723 17.1675 32.0438 17.196 32.0088 17.196H31.4141V18.8698C31.4173 18.8964 31.4054 18.9228 31.3828 18.9372C31.3601 18.9515 31.3303 18.9515 31.3076 18.9372C31.2851 18.9228 31.2731 18.8964 31.2764 18.8698H31.2715V17.196H30.6807C30.6457 17.196 30.6172 17.1675 30.6172 17.1325C30.6172 17.0976 30.6457 17.069 30.6807 17.069H32.0088ZM34.5176 17.0632C34.5458 17.0643 34.5716 17.0794 34.5869 17.1032L35.3125 18.1706L36.0381 17.1032C36.0526 17.0792 36.0785 17.0641 36.1064 17.0632H36.1201C36.1582 17.0638 36.1888 17.0944 36.1895 17.1325V18.8698C36.1927 18.8965 36.1799 18.9228 36.1572 18.9372C36.1346 18.9513 36.1056 18.9515 36.083 18.9372C36.0604 18.9228 36.0485 18.8964 36.0518 18.8698V17.3132L35.3682 18.3063C35.3569 18.328 35.334 18.3419 35.3096 18.3415C35.2853 18.3414 35.2626 18.3277 35.251 18.3063L34.5684 17.3132V18.8727C34.5684 18.9094 34.5386 18.9391 34.502 18.9391C34.4655 18.9389 34.4355 18.9093 34.4355 18.8727V17.1325C34.4361 17.0948 34.4672 17.0643 34.5049 17.0632H34.5176ZM37.834 17.0612C37.8621 17.0628 37.8878 17.0778 37.9033 17.1013L38.6289 18.1686L39.3545 17.1032C39.3688 17.0789 39.3946 17.0636 39.4229 17.0632H39.4365C39.474 17.0645 39.5043 17.0949 39.5049 17.1325V18.8698C39.5049 18.9075 39.4741 18.9379 39.4365 18.9382C39.3987 18.9382 39.3672 18.9076 39.3672 18.8698V17.3132L38.6836 18.3063C38.672 18.3275 38.6501 18.3414 38.626 18.3415C38.6017 18.3415 38.579 18.3276 38.5674 18.3063L37.8838 17.3132V18.8727C37.887 18.8982 37.8752 18.9234 37.8535 18.9372C37.8318 18.951 37.8039 18.951 37.7822 18.9372C37.7606 18.9234 37.7488 18.8982 37.752 18.8727V17.1306C37.7525 17.0929 37.7826 17.0624 37.8203 17.0612H37.834ZM44.0361 17.0593C44.0726 17.0595 44.1025 17.0891 44.1025 17.1257V18.8776C44.1028 18.8928 44.0965 18.9077 44.0859 18.9186C44.0754 18.9296 44.0611 18.9359 44.0459 18.9362H44.0361C44.0073 18.9326 43.9809 18.9161 43.9658 18.8913L42.6875 17.2712V18.8727C42.6907 18.8983 42.6789 18.9234 42.6572 18.9372C42.6355 18.9509 42.6076 18.9509 42.5859 18.9372C42.5644 18.9234 42.5525 18.8981 42.5557 18.8727H42.5576V17.1306C42.5582 17.093 42.5885 17.0626 42.626 17.0612H42.6475C42.6754 17.0627 42.7017 17.0777 42.7168 17.1013L43.9688 18.6921V17.1257C43.9688 17.089 43.9994 17.0593 44.0361 17.0593ZM53.9971 17.0593C54.0338 17.0593 54.0635 17.089 54.0635 17.1257V18.8776C54.0637 18.8927 54.0582 18.9077 54.0479 18.9186C54.0374 18.9295 54.0228 18.9358 54.0078 18.9362H53.9971C53.9683 18.9326 53.9428 18.9161 53.9277 18.8913L52.6494 17.2712V18.8727C52.6526 18.8982 52.6407 18.9234 52.6191 18.9372C52.5974 18.9509 52.5696 18.9509 52.5479 18.9372C52.5261 18.9234 52.5144 18.8983 52.5176 18.8727V17.1306C52.5181 17.0928 52.5482 17.0623 52.5859 17.0612H52.6074C52.6353 17.0627 52.6607 17.0778 52.6758 17.1013L53.9307 18.6921V17.1257C53.9307 17.089 53.9604 17.0593 53.9971 17.0593ZM51.7568 17.0593C51.7946 17.0593 51.8252 17.0898 51.8252 17.1276V18.8727C51.8252 18.8972 51.8122 18.9201 51.791 18.9323C51.7699 18.9444 51.7437 18.9445 51.7227 18.9323C51.7015 18.9201 51.6885 18.8972 51.6885 18.8727V17.1276C51.6885 17.0899 51.7192 17.0594 51.7568 17.0593ZM28.2402 17.0593C28.278 17.0598 28.3085 17.0899 28.3096 17.1276V18.8698C28.309 18.9079 28.2784 18.9386 28.2402 18.9391C28.2119 18.9383 28.1882 18.9208 28.1777 18.8962L28.1719 18.8698V17.1276C28.1724 17.09 28.2027 17.0598 28.2402 17.0593ZM33.8428 17.069C33.8777 17.069 33.9062 17.0976 33.9062 17.1325C33.9062 17.1675 33.8778 17.196 33.8428 17.196H32.7119V17.9274H33.7236C33.7586 17.9274 33.7871 17.956 33.7871 17.9909C33.7871 18.0259 33.7586 18.0544 33.7236 18.0544H32.7129V18.8015H33.8574C33.8822 18.7983 33.9065 18.8097 33.9199 18.8308C33.9333 18.8518 33.9333 18.879 33.9199 18.9001C33.9065 18.921 33.8821 18.9325 33.8574 18.9294H32.6416C32.604 18.9283 32.574 18.8976 32.5732 18.86V17.1374C32.574 17.1 32.6041 17.0696 32.6416 17.069H33.8428ZM48.1064 17.1657C47.6469 17.166 47.3176 17.5372 47.3174 17.9968V18.0837C47.329 18.2717 47.4071 18.4507 47.5381 18.5886C47.6878 18.7461 47.895 18.837 48.1123 18.8395V18.8337C48.5719 18.8335 48.9012 18.4622 48.9014 18.0026C48.9102 17.7855 48.8302 17.5734 48.6807 17.4157C48.5311 17.2582 48.3237 17.1683 48.1064 17.1657ZM41.0254 17.1618C40.5656 17.1618 40.2364 17.5341 40.2363 17.9938V17.9987C40.2275 18.2158 40.3065 18.428 40.4561 18.5856C40.6056 18.7433 40.813 18.8331 41.0303 18.8356V18.8337C41.49 18.8337 41.8201 18.4623 41.8203 18.0026V17.9987C41.8287 17.7817 41.7492 17.5703 41.5996 17.4128C41.4499 17.2552 41.2427 17.1645 41.0254 17.1618ZM49.7744 18.0368L50.4023 18.0388C50.7129 18.0387 50.9443 17.8816 50.9443 17.614V17.6081C50.9443 17.3567 50.7474 17.1989 50.4102 17.1989H49.7744V18.0368Z" fill="#003142"/>
<path d="M29.3066 5.44979C30.2532 5.43534 31.1841 5.69515 31.9863 6.19784C32.3169 6.39954 32.4715 6.7974 32.3643 7.16952C32.2568 7.54175 31.9137 7.79617 31.5264 7.79061C31.3605 7.79102 31.1971 7.74537 31.0557 7.65877C30.4397 7.29516 29.8615 7.09045 29.2822 7.09042C28.57 7.09042 28.1963 7.41896 28.1963 7.82772V7.85213C28.1963 8.40698 28.5576 8.58756 30.0176 8.96151C31.7313 9.40808 32.6973 10.0251 32.6973 11.4967V11.5211C32.6971 13.1988 31.4176 14.1392 29.5957 14.1392C28.4581 14.1403 27.3483 13.7868 26.4219 13.1265C26.2013 12.9617 26.0715 12.7018 26.0723 12.4264C26.0717 12.1968 26.1638 11.9763 26.3272 11.815C26.4904 11.6541 26.7113 11.5655 26.9404 11.5689C27.1311 11.5673 27.3182 11.627 27.4727 11.7389C28.1122 12.2087 28.8155 12.4986 29.6328 12.4986C30.3929 12.4986 30.8515 12.1972 30.8516 11.7017V11.6783C30.8516 11.2072 30.5625 10.9659 29.1504 10.6031C27.448 10.1668 26.3507 9.69876 26.3506 8.02108V7.99667C26.3506 6.46382 27.5807 5.44979 29.3066 5.44979ZM45.3311 5.59627C45.6231 5.4235 45.9863 5.42347 46.2783 5.59627C46.5704 5.76926 46.7455 6.08804 46.7344 6.42733V13.1617C46.7456 13.5011 46.5705 13.8197 46.2783 13.9928C45.9862 14.1657 45.6232 14.1657 45.3311 13.9928C45.0389 13.8197 44.8637 13.5011 44.875 13.1617V6.42733C44.8639 6.08804 45.0389 5.76926 45.3311 5.59627ZM35.4473 5.52499C35.7957 5.51978 36.1192 5.70483 36.292 6.00741L38.54 9.66463L40.7969 5.99667C40.963 5.69466 41.2855 5.51173 41.6299 5.52499H41.834C42.0813 5.52223 42.3192 5.61974 42.4941 5.79452C42.669 5.96917 42.766 6.2066 42.7637 6.4537V13.1627C42.7637 13.6729 42.35 14.0865 41.8398 14.0865C41.3298 14.0863 40.916 13.6728 40.916 13.1627V8.95077L39.2871 11.4615C39.094 11.7516 38.8528 11.9322 38.5147 11.9322C38.1766 11.9321 37.9353 11.7516 37.7422 11.4615L36.1397 8.9869V13.1861C36.1394 13.4287 36.042 13.6615 35.8691 13.8316C35.6964 14.0015 35.463 14.0948 35.2207 14.0914C34.9799 14.0936 34.7484 13.999 34.5781 13.8287C34.4079 13.6584 34.3123 13.4269 34.3145 13.1861V6.4537C34.3121 6.20693 34.4096 5.96912 34.584 5.79452C34.7585 5.61997 34.9964 5.52278 35.2432 5.52499H35.4473ZM49.3018 5.59627C49.5939 5.42327 49.9578 5.42325 50.25 5.59627C50.542 5.76928 50.7162 6.0881 50.7051 6.42733V12.3287H54.1445C54.6113 12.3287 54.9902 12.7077 54.9902 13.1744C54.9901 13.641 54.6112 14.0191 54.1445 14.0191H49.7764C49.5292 14.0219 49.2912 13.9252 49.1162 13.7506C48.9413 13.5758 48.8442 13.3377 48.8467 13.0904V6.42733C48.8355 6.08803 49.0096 5.76926 49.3018 5.59627ZM61.9277 5.56991C62.149 5.5702 62.3614 5.65923 62.5176 5.816C62.6735 5.97269 62.7612 6.18479 62.7607 6.40584C62.7591 6.62483 62.67 6.83447 62.5137 6.98788C62.3574 7.1412 62.1466 7.22565 61.9277 7.22323H58.1641V8.941H61.3867C61.8464 8.94156 62.219 9.31442 62.2197 9.77401C62.2178 9.99291 62.1289 10.2027 61.9727 10.356C61.8165 10.5092 61.6055 10.5936 61.3867 10.5914H58.1641V12.3658H61.9902C62.4499 12.3665 62.8227 12.7392 62.8232 13.1988C62.8216 13.4178 62.7324 13.6275 62.5762 13.7808C62.42 13.9341 62.209 14.0186 61.9902 14.0162H57.2471V14.0191C56.9999 14.0218 56.7618 13.9253 56.5869 13.7506C56.412 13.5758 56.3149 13.3377 56.3174 13.0904V6.50057C56.3146 6.2531 56.4119 6.01444 56.5869 5.83944C56.7618 5.6646 56.9998 5.56722 57.2471 5.56991H61.9277Z" fill="#003142"/>
<path d="M9.6172 11.4327C10.7283 10.4027 12.4456 10.4026 13.5567 11.4327C14.6677 12.4629 14.7969 14.1757 13.8535 15.3614C16.0152 16.0728 17.7166 17.7595 18.4463 19.9151C19.1759 22.0706 18.8494 24.4442 17.5645 26.3223L17.666 26.2637C17.442 26.4026 17.2133 26.5341 16.9805 26.6573L16.9541 26.67C16.7967 26.7518 16.6376 26.8307 16.4775 26.9063L16.4277 26.9288L16.2149 27.0216L16.0371 27.0968L16.041 27.1016C15.8187 27.1384 15.5935 27.1579 15.3682 27.1593C14.0233 27.1598 12.7536 26.5393 11.9268 25.4786C11.5532 24.9307 10.8679 24.6876 10.2324 24.877C10.1438 24.2319 9.66355 23.7097 9.02833 23.5665C8.39325 23.4234 7.73574 23.689 7.37892 24.2335C7.02207 24.7781 7.04085 25.4876 7.42579 26.0128C7.81074 26.538 8.48159 26.7692 9.10841 26.5928C9.21383 27.3541 10.4483 27.9268 10.4483 27.9268C8.73718 27.7598 7.08534 27.211 5.61427 26.3214V26.3194C5.61203 26.318 5.60968 26.3168 5.60743 26.3155C4.32478 24.4385 3.99865 22.0677 4.72755 19.9141C5.45705 17.759 7.1581 16.0726 9.31935 15.3614C8.37599 14.1757 8.5061 12.4629 9.6172 11.4327ZM5.62013 26.3272H5.61427V26.3233L5.62013 26.3272ZM5.60743 26.3155C5.60835 26.3168 5.60944 26.3181 5.61036 26.3194C5.61159 26.3202 5.61304 26.3206 5.61427 26.3214V26.3233L5.51856 26.2647C5.54785 26.2827 5.57802 26.2979 5.60743 26.3155Z" fill="white"/>
<path d="M8.57617 23.5254C9.39585 23.4686 10.1194 24.057 10.2305 24.8711C10.8659 24.6818 11.5513 24.9249 11.9248 25.4727C12.8954 26.73 14.4776 27.3535 16.0449 27.0957L15.9668 27.126L15.9053 27.1504C15.7535 27.2117 15.599 27.27 15.4424 27.3252L15.373 27.3486C15.2192 27.4017 15.0641 27.4521 14.9082 27.499L14.833 27.5195C14.6798 27.5645 14.5254 27.6067 14.3701 27.6455L14.2783 27.666C14.1295 27.7017 13.7474 27.7796 13.7061 27.7871C13.564 27.8137 13.4214 27.8379 13.2783 27.8594C13.2212 27.8675 13.1636 27.8737 13.1064 27.8809C12.9799 27.8972 12.8532 27.9145 12.7246 27.9268C12.6357 27.9359 12.5561 27.9401 12.458 27.9473C12.36 27.9544 12.2661 27.9687 12.1641 27.9688C11.7827 27.9871 11.4012 27.9871 11.0205 27.9688C10.9224 27.9636 10.8155 27.9534 10.7266 27.9473C10.6378 27.9411 10.5478 27.9359 10.459 27.9268C10.4553 27.9247 10.4525 27.9215 10.4492 27.9189C10.2375 27.8903 10.0305 27.8212 9.84375 27.707C9.44415 27.4626 9.17582 27.051 9.1123 26.5869C8.64201 26.7263 8.13327 26.634 7.74219 26.3379C7.35115 26.0418 7.12429 25.5774 7.13086 25.0869H7.12402C7.12147 24.2652 7.7564 23.5823 8.57617 23.5254ZM10.5488 27.9287C10.5843 27.932 10.6197 27.9349 10.6553 27.9355C10.6569 27.9356 10.6585 27.9346 10.6602 27.9346C10.6229 27.9346 10.5859 27.9313 10.5488 27.9287ZM11.0195 27.8916C11.0717 27.8792 11.124 27.8655 11.1748 27.8477C11.1239 27.8655 11.0715 27.8792 11.0195 27.8916ZM19.7236 8.15723C20.1588 8.58594 20.5592 9.04847 20.9219 9.54004C20.9392 9.56354 20.9563 9.58778 20.9736 9.6123C21.0669 9.73966 21.1573 9.86983 21.2451 10.002C21.2716 10.0418 21.2968 10.0823 21.3223 10.1221C21.3988 10.2405 21.4744 10.359 21.5469 10.4805L21.6289 10.6221C21.6953 10.7385 21.7619 10.8561 21.8262 10.9756C21.8517 11.0205 21.8759 11.0741 21.9004 11.123C21.9616 11.2425 22.0219 11.3629 22.0801 11.4844C22.1015 11.5313 22.1222 11.5791 22.1436 11.626C22.2008 11.7517 22.2565 11.8781 22.3086 12.0068L22.3613 12.1377C22.4093 12.2704 22.4648 12.4034 22.5117 12.5371C22.526 12.5778 22.5395 12.6175 22.5527 12.6582C22.6004 12.7958 22.6453 12.9349 22.6875 13.0752C22.6987 13.1128 22.7085 13.1518 22.7197 13.1895C22.7606 13.3315 22.8002 13.4741 22.835 13.6182C22.8452 13.6579 22.8541 13.6966 22.8633 13.7363C22.897 13.8784 22.9284 14.021 22.957 14.165C22.9662 14.2109 22.9733 14.2578 22.9814 14.3037C23.007 14.4376 23.0303 14.5749 23.0508 14.7129C23.06 14.7741 23.0661 14.8353 23.0742 14.8965C23.0906 15.0191 23.1069 15.143 23.1182 15.2666C23.1273 15.3584 23.1325 15.4451 23.1396 15.541C23.1468 15.637 23.1601 15.7322 23.1602 15.8281C23.1693 16.0191 23.1748 16.2094 23.1748 16.4004L23.1709 16.4023C23.1709 16.5933 23.1654 16.7847 23.1562 16.9746C23.1511 17.0717 23.1429 17.1727 23.1357 17.2637C23.1286 17.3545 23.1234 17.4463 23.1143 17.5371C23.103 17.6618 23.0856 17.7865 23.0703 17.9102C23.0621 17.9704 23.0561 18.0306 23.0469 18.0908C23.0264 18.2308 23.0021 18.3699 22.9766 18.5078C22.9684 18.5517 22.9613 18.5957 22.9531 18.6396C22.9245 18.7878 22.8912 18.934 22.8564 19.0791C22.8483 19.1118 22.8412 19.1469 22.832 19.1816C22.7953 19.3327 22.7548 19.4819 22.7119 19.6299C22.7027 19.6604 22.6947 19.6912 22.6855 19.7207C22.6436 19.8719 22.5911 20.0217 22.541 20.1699L22.5117 20.2549C22.4586 20.4051 22.402 20.553 22.3438 20.7002L22.3115 20.7812C22.2502 20.9304 22.1856 21.0784 22.1182 21.2256C22.108 21.249 22.0962 21.2735 22.085 21.2969C22.0145 21.45 21.9389 21.6 21.8623 21.748L21.8359 21.7998C21.7509 21.9611 21.6619 22.1202 21.5693 22.2773L21.5635 22.2871C20.8952 23.4157 20.0397 24.4225 19.0342 25.2646L18.9795 25.3096C18.5339 25.6818 18.0609 26.0201 17.5645 26.3213C18.8499 24.4433 19.1768 22.0697 18.4473 19.9141C17.7177 17.7585 16.0162 16.0716 13.8545 15.3604C14.7978 14.1747 14.6685 12.4628 13.5576 11.4326C12.4465 10.4025 10.7293 10.4025 9.61816 11.4326C8.50728 12.4627 8.37722 14.1747 9.32031 15.3604C7.15803 16.0715 5.45614 17.7589 4.72656 19.915C3.99698 22.0713 4.32502 24.4452 5.61133 26.3232C5.47754 26.2426 5.34362 26.16 5.21289 26.0742C3.90629 25.2117 2.78631 24.0947 1.9209 22.79L1.87109 22.7109C1.78629 22.5802 1.70372 22.4493 1.62402 22.3154C1.5995 22.2746 1.57721 22.2333 1.55371 22.1924C1.48427 22.0709 1.41501 21.9498 1.34863 21.8252C1.32309 21.7782 1.29992 21.7286 1.27539 21.6816C1.21414 21.5622 1.15385 21.4418 1.09668 21.3203C1.07319 21.2723 1.05176 21.22 1.0293 21.1699C0.970027 21.0483 0.919304 20.9244 0.867188 20.8008C0.847875 20.752 0.829859 20.7031 0.810547 20.6553C0.760474 20.5275 0.711024 20.4003 0.665039 20.2705C0.648727 20.2246 0.63448 20.1787 0.618164 20.1328C0.573224 20 0.530114 19.8672 0.489258 19.7324C0.476013 19.6886 0.465381 19.6444 0.452148 19.6006C0.413316 19.4667 0.37552 19.3294 0.341797 19.1914C0.330562 19.1465 0.319784 19.1006 0.30957 19.0547C0.277891 18.9198 0.247318 18.7835 0.219727 18.6455C0.209536 18.5915 0.201562 18.5413 0.192383 18.4893C0.167869 18.3585 0.144407 18.2265 0.125 18.0947C0.115821 18.0284 0.10875 17.9618 0.100586 17.8955C0.0852651 17.777 0.0688516 17.6596 0.0576172 17.5391C0.048422 17.444 0.0432852 17.3439 0.0361328 17.252C0.0289913 17.1601 0.0156686 17.0694 0.015625 16.9775C0.00642792 16.7864 0.000976562 16.5944 0.000976562 16.4033H0C8.55987e-06 16.2124 0.00545907 16.021 0.0146484 15.8311C0.0197634 15.7383 0.0290359 15.6525 0.0351562 15.5566C0.0412861 15.4606 0.0474468 15.3646 0.0566406 15.2686C0.0678775 15.1501 0.0842856 15.0315 0.0996094 14.9141C0.107768 14.8437 0.114814 14.7773 0.125 14.71C0.143392 14.5792 0.166929 14.45 0.19043 14.3213C0.199627 14.2661 0.208531 14.2114 0.21875 14.1562C0.245301 14.0225 0.276014 13.8905 0.306641 13.7588C0.31783 13.711 0.329594 13.6582 0.341797 13.6094C0.371411 13.4776 0.406598 13.3475 0.443359 13.2178C0.457636 13.1647 0.472012 13.1135 0.487305 13.0625C0.525115 12.9378 0.565524 12.815 0.607422 12.6924C0.626831 12.6352 0.644609 12.5767 0.665039 12.5195C0.705869 12.4052 0.749037 12.293 0.793945 12.1797C0.819481 12.1153 0.844539 12.0497 0.871094 11.9844C0.914008 11.8822 0.958904 11.7799 1.00488 11.6777C1.04061 11.6042 1.07276 11.5315 1.10645 11.459C1.15039 11.367 1.20233 11.2633 1.24219 11.1836C1.28197 11.104 1.31939 11.0309 1.36426 10.9473C1.40922 10.8635 1.46006 10.781 1.50195 10.6982C1.54384 10.6155 1.60053 10.5258 1.64648 10.4492C1.69238 10.3727 1.73808 10.3083 1.78906 10.2207C1.84016 10.1328 1.89603 10.0444 1.9502 9.96875C2.00426 9.89325 2.05032 9.82472 2.10645 9.74512C2.16258 9.6655 2.21819 9.58348 2.27637 9.50488C2.33459 9.42624 2.40085 9.34397 2.45703 9.27246C2.51316 9.20103 2.56782 9.12804 2.62598 9.05762C2.69648 8.97077 2.77116 8.88656 2.84473 8.80176C2.89783 8.74253 2.94589 8.68227 3 8.62305C3.08991 8.52395 3.18437 8.42709 3.27734 8.33105C3.31718 8.2902 3.35466 8.24687 3.39551 8.20703L11.5859 0.015625L19.7236 8.15723Z" fill="#0BA6E0"/>
</svg>
